<svg xmlns="http://www.w3.org/2000/svg" xmlns:xlink="http://www.w3.org/1999/xlink" width="918" zoomAndPan="magnify" viewBox="0 0 688.5 150.749998" height="201" preserveAspectRatio="xMidYMid meet" version="1.0"><defs><g/><clipPath id="e052b1eed4"><path d="M 0.320312 0 L 687.679688 0 L 687.679688 150.5 L 0.320312 150.5 Z M 0.320312 0 " clip-rule="nonzero"/></clipPath><clipPath id="3b126643f6"><path d="M 108 8.449219 L 204 8.449219 L 204 142.574219 L 108 142.574219 Z M 108 8.449219 " clip-rule="nonzero"/></clipPath><clipPath id="9afd56b27c"><path d="M 106.296875 14 L 216 14 L 216 137 L 106.296875 137 Z M 106.296875 14 " clip-rule="nonzero"/></clipPath><clipPath id="f300558760"><path d="M 106.335938 14.320312 L 218.851562 14.320312 L 218.851562 142.574219 L 106.335938 142.574219 Z M 106.335938 14.320312 " clip-rule="nonzero"/></clipPath><clipPath id="5e5068366a"><path d="M 179.789062 22.871094 L 220.15625 22.871094 L 220.15625 104.214844 L 179.789062 104.214844 Z M 179.789062 22.871094 " clip-rule="nonzero"/></clipPath></defs><g clip-path="url(#e052b1eed4)"><path fill="#ffffff" d="M 0.320312 0 L 688.179688 0 L 688.179688 157.351562 L 0.320312 157.351562 Z M 0.320312 0 " fill-opacity="1" fill-rule="nonzero"/><path fill="#ffffff" d="M 0.320312 0 L 688.179688 0 L 688.179688 150.609375 L 0.320312 150.609375 Z M 0.320312 0 " fill-opacity="1" fill-rule="nonzero"/></g><g clip-path="url(#3b126643f6)"><path fill="#2f80ae" d="M 195.300781 8.816406 C 186.460938 9.171875 183.867188 12.949219 183.691406 14.78125 C 183.515625 16.613281 189.878906 29.550781 189.878906 29.550781 L 198.601562 29.015625 C 198.601562 29.015625 200.25 25.710938 202.078125 21.929688 C 203.902344 18.148438 204.140625 8.460938 195.300781 8.816406 Z M 159.1875 59.316406 L 151.914062 30.964844 C 151.644531 29.921875 150.707031 29.191406 149.632812 29.1875 L 110.792969 29.085938 C 109.210938 29.082031 108.074219 30.609375 108.527344 32.128906 L 117.011719 60.582031 C 117.3125 61.585938 118.230469 62.273438 119.273438 62.273438 L 156.898438 62.273438 C 158.441406 62.273438 159.570312 60.8125 159.1875 59.316406 Z M 175.589844 137.9375 L 169.8125 141.054688 C 169.832031 141.421875 169.84375 141.78125 169.84375 142.128906 L 151.105469 142.128906 C 151.105469 142.128906 153.460938 138.585938 158.292969 138.585938 C 163.125 138.585938 162.773438 135.277344 162.773438 135.277344 L 168.757812 133.328125 C 168.757812 133.328125 168.996094 133.628906 169.101562 134.085938 L 173.027344 132.710938 C 173.027344 132.710938 174.96875 134.835938 175.589844 137.9375 " fill-opacity="1" fill-rule="nonzero"/></g><g clip-path="url(#9afd56b27c)"><path fill="#f6ad9a" d="M 176.324219 74.203125 L 151.578125 74.203125 L 151.578125 73.375 L 141.644531 73.375 C 139.351562 73.375 137.695312 71.183594 138.316406 68.972656 L 140.214844 62.210938 L 156.722656 62.210938 C 158.25 62.210938 159.363281 60.769531 158.984375 59.289062 L 157.996094 55.4375 L 115.746094 55.4375 L 117.269531 60.542969 C 117.566406 61.535156 118.476562 62.210938 119.507812 62.210938 L 127.222656 62.210938 L 125.21875 69.65625 C 124.605469 71.949219 126.328125 74.203125 128.699219 74.203125 L 106.566406 74.203125 L 106.566406 84.128906 L 176.324219 84.128906 Z M 215.453125 84.597656 L 191.292969 81.292969 C 191.292969 81.292969 163.597656 88.5 156.878906 90.035156 C 150.164062 91.570312 146.390625 96.292969 148.984375 105.035156 C 151.578125 113.777344 159.355469 136.226562 159.355469 136.226562 L 168.84375 133.445312 L 169.179688 134.222656 L 175.5 132.089844 L 169.28125 102.554688 C 172.890625 102.554688 178.238281 102.554688 186.109375 102.554688 C 207.085938 102.554688 215.628906 105.507812 215.453125 84.597656 Z M 146.261719 44.316406 C 145.683594 42.984375 145.035156 41.703125 144.355469 40.476562 L 146.273438 44.375 C 146.273438 44.375 146.269531 44.351562 146.261719 44.316406 Z M 135.074219 28.074219 L 152.636719 28.074219 C 152.636719 28.074219 157.496094 30.3125 161.003906 37.226562 C 164.539062 44.199219 166.191406 52.585938 166.191406 52.585938 L 148.6875 52.585938 C 148.636719 52.21875 148.574219 51.855469 148.507812 51.492188 L 145.800781 54.769531 C 145.800781 54.769531 145.445312 54.417969 142.675781 49.867188 C 139.953125 45.390625 144.128906 40.460938 144.261719 40.304688 C 140.242188 33.125 135.074219 28.074219 135.074219 28.074219 Z M 183.070312 26.789062 L 181.511719 26.832031 L 183.191406 24.394531 L 183.691406 14.78125 L 187.402344 16.496094 C 187.402344 16.496094 187.285156 20.867188 190.585938 22.578125 L 191.644531 19.210938 C 191.644531 19.210938 194.59375 18.855469 194.476562 21.574219 C 194.449219 22.15625 194.304688 22.679688 194.09375 23.140625 C 192.792969 25.984375 194.832031 29.308594 197.945312 29.101562 C 198.160156 29.089844 198.378906 29.058594 198.601562 29.015625 L 198.894531 33.269531 L 191.234375 34.804688 L 191.292969 31.792969 L 188.757812 32.796875 C 185.890625 33.929688 182.8125 31.710938 182.972656 28.625 L 183.070312 26.789062 " fill-opacity="1" fill-rule="nonzero"/></g><path fill="#dd7a5e" d="M 186.460938 82.5625 L 182.21875 56.246094 C 182.21875 56.246094 168.902344 68.886719 165.71875 71.722656 C 162.535156 74.558594 158.175781 75.148438 154.757812 70.660156 C 151.339844 66.171875 142.738281 52.9375 142.738281 52.9375 L 149.808594 49.984375 L 159.941406 62.980469 C 159.941406 62.980469 174.792969 47.625 178.566406 43.960938 C 182.335938 40.300781 189.523438 37.582031 189.523438 37.582031 L 190.113281 34.511719 L 199.191406 30.492188 L 200.484375 35.21875 C 200.484375 35.21875 206.378906 38.644531 208.972656 40.179688 C 211.5625 41.714844 212.269531 45.023438 212.859375 49.632812 C 213.449219 54.238281 216.277344 79.402344 216.632812 84.246094 C 216.984375 89.089844 203.785156 96.648438 189.171875 82.117188 L 186.460938 82.5625 " fill-opacity="1" fill-rule="nonzero"/><g clip-path="url(#f300558760)"><path fill="#2f80ae" d="M 143.984375 40.28125 C 143.316406 41.125 139.910156 45.765625 142.480469 49.988281 C 142.871094 50.625 143.210938 51.109375 143.507812 51.53125 C 143.714844 51.824219 143.902344 52.089844 144.070312 52.359375 C 144.117188 52.429688 144.191406 52.464844 144.265625 52.464844 C 144.308594 52.464844 144.351562 52.453125 144.390625 52.429688 C 144.496094 52.363281 144.527344 52.222656 144.460938 52.113281 C 144.289062 51.835938 144.097656 51.566406 143.886719 51.265625 C 143.589844 50.847656 143.253906 50.371094 142.875 49.746094 C 140.585938 45.992188 143.390625 41.824219 144.222656 40.726562 L 146.066406 44.476562 C 146.117188 44.578125 146.234375 44.628906 146.34375 44.59375 C 146.453125 44.558594 146.519531 44.445312 146.5 44.335938 C 146.496094 44.308594 146.082031 42.003906 145.726562 40.65625 C 145.597656 40.15625 145.695312 39.875 145.851562 39.820312 C 146.035156 39.753906 146.347656 39.933594 146.535156 40.335938 C 146.820312 40.941406 146.875 41.046875 147.234375 41.714844 C 147.476562 42.164062 147.855469 42.878906 148.542969 44.1875 C 150.167969 47.277344 148.382812 50.242188 148.363281 50.269531 C 148.296875 50.378906 148.332031 50.519531 148.4375 50.589844 C 148.546875 50.65625 148.6875 50.621094 148.753906 50.511719 C 148.835938 50.382812 150.699219 47.300781 148.949219 43.972656 C 148.261719 42.664062 147.878906 41.949219 147.636719 41.496094 C 147.277344 40.824219 147.230469 40.738281 146.953125 40.140625 C 146.632812 39.460938 146.078125 39.246094 145.695312 39.386719 C 145.355469 39.511719 145.066406 39.9375 145.285156 40.769531 C 145.414062 41.273438 145.554688 41.90625 145.675781 42.503906 C 145.316406 41.765625 144.9375 41.042969 144.546875 40.34375 L 144.476562 40.195312 C 144.46875 40.183594 144.453125 40.175781 144.445312 40.160156 C 141.082031 34.171875 136.902344 29.628906 135.625 28.304688 L 152.585938 28.304688 C 153.070312 28.546875 157.542969 30.914062 160.800781 37.332031 C 163.921875 43.488281 165.585938 50.851562 165.90625 52.355469 L 151.933594 52.355469 C 151.804688 52.355469 151.703125 52.457031 151.703125 52.585938 C 151.703125 52.710938 151.804688 52.816406 151.933594 52.816406 L 166.191406 52.816406 C 166.257812 52.816406 166.324219 52.785156 166.367188 52.730469 C 166.410156 52.675781 166.429688 52.609375 166.414062 52.539062 C 166.398438 52.457031 164.71875 44.042969 161.210938 37.125 C 157.707031 30.21875 152.933594 27.953125 152.734375 27.863281 C 152.703125 27.847656 152.671875 27.84375 152.636719 27.84375 L 135.074219 27.84375 C 134.980469 27.84375 134.898438 27.898438 134.863281 27.984375 C 134.828125 28.074219 134.847656 28.171875 134.914062 28.238281 C 134.972656 28.292969 140.03125 33.277344 143.984375 40.28125 Z M 158.75 61.449219 C 159.242188 60.816406 159.40625 60.007812 159.207031 59.230469 L 158.21875 55.378906 C 158.1875 55.253906 158.0625 55.179688 157.9375 55.210938 C 157.816406 55.246094 157.742188 55.371094 157.773438 55.492188 L 158.761719 59.347656 C 158.925781 59.984375 158.789062 60.644531 158.386719 61.164062 Z M 215.789062 134.695312 L 205.445312 102.742188 C 205.417969 102.652344 205.445312 102.554688 205.515625 102.496094 C 202.378906 103.003906 198.472656 102.960938 193.703125 102.878906 C 193.804688 102.925781 193.859375 103.035156 193.828125 103.144531 L 184.640625 134.695312 L 199.3125 134.695312 L 199.3125 103.738281 C 199.3125 103.609375 199.414062 103.507812 199.542969 103.507812 C 199.671875 103.507812 199.773438 103.609375 199.773438 103.738281 L 199.773438 134.695312 Z M 168.960938 102.785156 L 162.359375 102.785156 L 170.066406 133.097656 C 170.097656 133.214844 170.027344 133.339844 169.90625 133.375 L 169.222656 133.574219 L 169.382812 133.9375 L 175.234375 131.9375 Z M 132.242188 74.441406 L 132.242188 83.898438 L 176.097656 83.898438 L 176.097656 74.433594 L 132.242188 74.433594 C 132.242188 74.4375 132.242188 74.4375 132.242188 74.441406 Z M 131.78125 83.898438 L 131.78125 74.441406 C 131.78125 74.4375 131.785156 74.4375 131.785156 74.433594 L 106.796875 74.433594 L 106.796875 83.898438 Z M 128.699219 73.972656 L 151.347656 73.972656 L 151.347656 73.605469 L 141.644531 73.605469 C 140.480469 73.605469 139.410156 73.074219 138.703125 72.144531 C 138.003906 71.210938 137.78125 70.035156 138.09375 68.910156 L 139.910156 62.441406 L 127.449219 62.441406 L 125.441406 69.714844 C 125.167969 70.738281 125.378906 71.808594 126.023438 72.648438 C 126.664062 73.492188 127.640625 73.972656 128.699219 73.972656 Z M 218.53125 142.410156 C 218.507812 142.417969 218.484375 142.421875 218.457031 142.421875 C 218.363281 142.421875 218.273438 142.359375 218.242188 142.261719 L 215.941406 135.15625 L 199.773438 135.15625 L 199.773438 142.367188 C 199.773438 142.496094 199.671875 142.597656 199.542969 142.597656 C 199.414062 142.597656 199.3125 142.496094 199.3125 142.367188 L 199.3125 135.15625 L 184.507812 135.15625 L 182.4375 142.253906 C 182.410156 142.355469 182.316406 142.421875 182.21875 142.421875 C 182.199219 142.421875 182.175781 142.417969 182.15625 142.410156 C 182.03125 142.375 181.960938 142.25 181.996094 142.125 L 184.050781 135.074219 C 184.015625 135.035156 183.992188 134.984375 183.992188 134.925781 C 183.992188 134.820312 184.0625 134.734375 184.160156 134.707031 L 193.386719 103.015625 C 193.40625 102.949219 193.453125 102.902344 193.511719 102.875 C 193.347656 102.871094 193.1875 102.867188 193.023438 102.867188 C 190.839844 102.828125 188.582031 102.785156 186.109375 102.785156 L 176.554688 102.785156 L 176.554688 142.191406 C 176.554688 142.316406 176.453125 142.421875 176.324219 142.421875 C 176.199219 142.421875 176.097656 142.316406 176.097656 142.191406 L 176.097656 102.785156 L 169.429688 102.785156 L 175.726562 132.042969 C 175.75 132.15625 175.683594 132.269531 175.574219 132.308594 L 169.332031 134.441406 C 169.304688 134.449219 169.28125 134.453125 169.257812 134.453125 C 169.167969 134.453125 169.085938 134.402344 169.046875 134.316406 L 168.777344 133.707031 L 159.417969 136.445312 C 159.398438 136.453125 159.375 136.457031 159.355469 136.457031 C 159.257812 136.457031 159.171875 136.394531 159.136719 136.300781 C 159.058594 136.074219 151.328125 113.75 148.761719 105.101562 C 147.515625 100.894531 147.667969 97.417969 149.214844 94.761719 C 150.648438 92.304688 153.210938 90.636719 156.828125 89.808594 C 160.269531 89.023438 168.722656 86.902344 176.097656 85.03125 L 176.097656 84.359375 L 132.242188 84.359375 L 132.242188 142.191406 C 132.242188 142.316406 132.140625 142.421875 132.011719 142.421875 C 131.886719 142.421875 131.78125 142.316406 131.78125 142.191406 L 131.78125 84.359375 L 106.796875 84.359375 L 106.796875 142.191406 C 106.796875 142.316406 106.695312 142.421875 106.566406 142.421875 C 106.441406 142.421875 106.335938 142.316406 106.335938 142.191406 L 106.335938 74.203125 C 106.335938 74.078125 106.441406 73.972656 106.566406 73.972656 L 126.882812 73.972656 C 126.414062 73.71875 125.996094 73.371094 125.65625 72.929688 C 124.925781 71.972656 124.6875 70.757812 125 69.59375 L 126.972656 62.441406 L 119.507812 62.441406 C 118.382812 62.441406 117.371094 61.6875 117.050781 60.609375 L 115.527344 55.503906 C 115.492188 55.378906 115.558594 55.25 115.683594 55.214844 C 115.804688 55.179688 115.933594 55.246094 115.96875 55.371094 L 117.492188 60.476562 C 117.753906 61.363281 118.585938 61.980469 119.507812 61.980469 L 148.675781 61.980469 L 149.019531 62.441406 L 140.390625 62.441406 L 138.539062 69.035156 C 138.261719 70.019531 138.457031 71.050781 139.070312 71.863281 C 139.6875 72.679688 140.625 73.144531 141.644531 73.144531 L 151.578125 73.144531 C 151.703125 73.144531 151.804688 73.25 151.804688 73.375 L 151.804688 73.972656 L 176.324219 73.972656 C 176.453125 73.972656 176.554688 74.078125 176.554688 74.203125 L 176.554688 84.914062 C 183.203125 83.230469 188.859375 81.78125 188.976562 81.75 C 189.101562 81.714844 189.226562 81.792969 189.257812 81.914062 C 189.289062 82.039062 189.214844 82.164062 189.089844 82.195312 C 188.835938 82.261719 163.574219 88.738281 156.929688 90.257812 C 153.441406 91.054688 150.980469 92.648438 149.609375 94.996094 C 148.132812 97.535156 147.992188 100.890625 149.203125 104.972656 C 151.632812 113.160156 158.707031 133.652344 159.5 135.941406 L 169.566406 132.996094 L 161.84375 102.613281 C 161.824219 102.542969 161.839844 102.472656 161.882812 102.414062 C 161.925781 102.359375 161.992188 102.324219 162.066406 102.324219 L 186.109375 102.324219 C 188.589844 102.324219 190.847656 102.367188 193.03125 102.40625 C 202.179688 102.570312 208.222656 102.675781 211.640625 99.28125 C 214.183594 96.757812 215.289062 92.230469 215.222656 84.601562 C 215.222656 84.472656 215.324219 84.371094 215.453125 84.367188 C 215.578125 84.367188 215.683594 84.472656 215.683594 84.597656 C 215.75 92.359375 214.601562 96.992188 211.964844 99.609375 C 210.402344 101.160156 208.34375 102.007812 205.746094 102.460938 C 205.808594 102.484375 205.859375 102.53125 205.882812 102.601562 L 218.679688 142.117188 C 218.71875 142.238281 218.652344 142.371094 218.53125 142.410156 Z M 152.417969 53.796875 L 145.699219 57.105469 C 145.585938 57.160156 145.539062 57.296875 145.59375 57.410156 C 145.636719 57.492188 145.714844 57.539062 145.800781 57.539062 C 145.835938 57.539062 145.871094 57.535156 145.902344 57.515625 L 152.621094 54.210938 C 152.734375 54.152344 152.78125 54.015625 152.726562 53.902344 C 152.671875 53.789062 152.53125 53.738281 152.417969 53.796875 Z M 189.304688 37.648438 C 189.332031 37.746094 189.425781 37.8125 189.523438 37.8125 C 189.546875 37.8125 189.570312 37.808594 189.589844 37.804688 L 199.609375 34.851562 C 199.730469 34.8125 199.800781 34.6875 199.765625 34.5625 C 199.726562 34.441406 199.597656 34.371094 199.476562 34.40625 L 189.460938 37.359375 C 189.339844 37.394531 189.269531 37.523438 189.304688 37.648438 Z M 181.519531 27.0625 L 182.824219 27.023438 L 182.742188 28.613281 C 182.664062 30.140625 183.355469 31.585938 184.597656 32.480469 C 185.832031 33.375 187.421875 33.570312 188.84375 33.011719 L 191.058594 32.136719 L 191.019531 34.082031 C 191.015625 34.207031 191.117188 34.3125 191.246094 34.316406 C 191.246094 34.316406 191.246094 34.316406 191.25 34.316406 C 191.375 34.316406 191.476562 34.214844 191.480469 34.089844 L 191.523438 31.796875 C 191.523438 31.71875 191.488281 31.648438 191.425781 31.605469 C 191.363281 31.558594 191.28125 31.550781 191.210938 31.578125 L 188.675781 32.582031 C 187.402344 33.085938 185.976562 32.90625 184.863281 32.105469 C 183.753906 31.304688 183.132812 30.007812 183.203125 28.636719 L 183.296875 26.800781 C 183.300781 26.734375 183.277344 26.671875 183.230469 26.625 C 183.1875 26.582031 183.113281 26.554688 183.0625 26.558594 L 181.957031 26.589844 L 183.382812 24.527344 C 183.40625 24.492188 183.421875 24.449219 183.421875 24.40625 L 183.632812 20.402344 C 183.632812 20.425781 183.636719 20.449219 183.648438 20.472656 C 183.710938 20.582031 183.847656 20.628906 183.960938 20.566406 C 183.992188 20.554688 184.707031 20.191406 185.296875 21.109375 C 185.339844 21.175781 185.414062 21.214844 185.488281 21.214844 C 185.53125 21.214844 185.574219 21.203125 185.613281 21.179688 C 185.71875 21.109375 185.75 20.96875 185.683594 20.859375 C 185.035156 19.84375 184.132812 19.957031 183.746094 20.160156 C 183.691406 20.1875 183.65625 20.234375 183.636719 20.289062 L 183.902344 15.132812 L 187.175781 16.644531 C 187.183594 17.460938 187.40625 21.1875 190.480469 22.785156 C 190.539062 22.816406 190.613281 22.816406 190.675781 22.792969 C 190.738281 22.765625 190.785156 22.714844 190.804688 22.648438 L 191.820312 19.429688 C 192.179688 19.414062 193.117188 19.4375 193.710938 19.988281 C 194.097656 20.347656 194.273438 20.878906 194.246094 21.5625 C 194.222656 22.074219 194.101562 22.570312 193.886719 23.046875 C 193.21875 24.503906 193.363281 26.21875 194.261719 27.527344 C 195.117188 28.773438 196.46875 29.429688 197.960938 29.332031 C 198.105469 29.324219 198.246094 29.308594 198.386719 29.289062 L 198.484375 30.699219 C 198.496094 30.824219 198.605469 30.914062 198.730469 30.914062 C 198.859375 30.902344 198.953125 30.792969 198.945312 30.667969 L 198.832031 29 C 198.824219 28.933594 198.792969 28.875 198.742188 28.835938 C 198.6875 28.792969 198.625 28.777344 198.554688 28.789062 C 198.351562 28.832031 198.140625 28.859375 197.929688 28.871094 C 196.605469 28.960938 195.402344 28.375 194.640625 27.265625 C 193.832031 26.089844 193.703125 24.550781 194.304688 23.238281 C 194.546875 22.707031 194.679688 22.152344 194.703125 21.585938 C 194.742188 20.753906 194.511719 20.105469 194.023438 19.648438 C 193.121094 18.8125 191.683594 18.976562 191.621094 18.984375 C 191.527344 18.992188 191.457031 19.054688 191.425781 19.144531 L 190.453125 22.242188 C 187.566406 20.53125 187.632812 16.542969 187.632812 16.5 C 187.636719 16.410156 187.585938 16.324219 187.5 16.285156 L 183.789062 14.574219 C 183.71875 14.542969 183.636719 14.546875 183.574219 14.585938 C 183.507812 14.625 183.464844 14.695312 183.460938 14.769531 L 182.964844 24.320312 L 181.324219 26.699219 C 181.273438 26.773438 181.269531 26.863281 181.308594 26.941406 C 181.351562 27.019531 181.425781 27.0625 181.519531 27.0625 Z M 185.433594 27.582031 C 184.8125 28.441406 183.980469 28.460938 183.941406 28.460938 C 183.816406 28.460938 183.710938 28.566406 183.710938 28.691406 C 183.710938 28.820312 183.816406 28.921875 183.941406 28.921875 C 183.988281 28.921875 185.039062 28.910156 185.808594 27.851562 C 185.882812 27.75 185.859375 27.605469 185.757812 27.53125 C 185.65625 27.457031 185.511719 27.480469 185.433594 27.582031 Z M 186.625 51.953125 C 186.714844 52.042969 186.710938 52.1875 186.621094 52.277344 L 182.378906 56.414062 C 182.332031 56.457031 182.277344 56.476562 182.21875 56.476562 C 182.160156 56.476562 182.097656 56.453125 182.054688 56.40625 C 181.964844 56.316406 181.96875 56.171875 182.058594 56.082031 L 186.300781 51.949219 C 186.394531 51.859375 186.539062 51.859375 186.625 51.953125 " fill-opacity="1" fill-rule="nonzero"/></g><g clip-path="url(#5e5068366a)"><path fill="#2f80ae" d="M 184.574219 23.703125 C 184.769531 23.703125 184.929688 23.542969 184.929688 23.347656 C 184.929688 23.152344 184.769531 22.992188 184.574219 22.992188 C 184.378906 22.992188 184.222656 23.152344 184.222656 23.347656 C 184.222656 23.542969 184.378906 23.703125 184.574219 23.703125 Z M 209.679688 104.09375 C 197.632812 104.09375 185.730469 103.945312 181.3125 103.882812 C 180.300781 103.867188 179.59375 102.84375 179.972656 101.902344 C 180.53125 100.515625 181.765625 98.894531 184.457031 98.894531 C 189.171875 98.894531 190.46875 98.894531 194.003906 98.894531 C 201.191406 98.894531 203.199219 80.820312 209.207031 80.820312 C 211.683594 80.820312 214.628906 80.820312 217.222656 80.820312 C 219.8125 80.820312 224.882812 104.09375 209.679688 104.09375 " fill-opacity="1" fill-rule="nonzero"/></g><g fill="#000000" fill-opacity="0.4"><g transform="translate(304.10352, 65.257756)"><g><path d="M 8.117188 0.199219 C 11.136719 -0.175781 12.8125 -2.023438 12.8125 -4.96875 C 12.8125 -6.394531 12.460938 -7.691406 11.789062 -8.617188 C 10.9375 -9.839844 9.414062 -10.339844 8.042969 -10.539062 C 7.265625 -10.664062 6.144531 -10.714844 6.144531 -11.636719 C 6.144531 -12.386719 7.066406 -13.6875 7.890625 -14.109375 C 8.390625 -14.359375 9.066406 -14.460938 9.816406 -14.410156 C 10.089844 -14.386719 10.363281 -14.285156 10.664062 -14.183594 C 11.011719 -14.058594 11.4375 -13.910156 11.863281 -13.910156 C 12.710938 -13.910156 13.460938 -14.660156 13.460938 -15.484375 C 13.460938 -15.984375 13.1875 -16.382812 12.6875 -16.609375 C 11.789062 -17.03125 10.738281 -17.257812 9.613281 -17.257812 C 6.21875 -17.257812 3.546875 -15.234375 3.195312 -12.3125 C 2.921875 -9.839844 4.171875 -8.441406 7.316406 -7.59375 C 9.164062 -7.09375 9.789062 -6.542969 9.789062 -5.371094 C 9.789062 -4.695312 9.539062 -4.019531 9.117188 -3.597656 C 8.089844 -2.621094 5.417969 -2.597656 3.921875 -3.546875 C 3.644531 -3.746094 3.546875 -4.019531 3.445312 -4.371094 C 3.347656 -4.71875 3.222656 -5.121094 2.820312 -5.417969 C 2.023438 -5.992188 0.875 -5.792969 0.550781 -4.996094 C 0.425781 -4.746094 0.375 -4.496094 0.375 -4.21875 C 0.375 -2.820312 1.898438 -1.398438 2.871094 -0.824219 C 4.644531 0.175781 6.894531 0.375 8.117188 0.199219 Z M 8.117188 0.199219 "/></g></g></g><g fill="#000000" fill-opacity="0.4"><g transform="translate(325.631267, 65.257756)"><g><path d="M 5.621094 0.5 C 7.09375 0.5 8.714844 -0.648438 9.765625 -2.371094 C 10.515625 -3.722656 10.9375 -5.269531 11.089844 -7.019531 C 11.164062 -8.542969 11.113281 -9.914062 10.914062 -11.636719 C 10.890625 -11.789062 10.890625 -11.960938 10.863281 -12.136719 C 10.789062 -13.160156 10.664062 -14.761719 9.214844 -14.761719 C 8.316406 -14.761719 7.566406 -14.058594 7.566406 -13.210938 L 7.617188 -12.785156 C 7.742188 -11.914062 8.042969 -9.863281 8.042969 -8.167969 C 8.042969 -7.242188 7.941406 -5.667969 7.492188 -4.371094 C 7.21875 -3.597656 6.617188 -3.070312 6.042969 -3.070312 C 4.945312 -3.070312 4.519531 -4.621094 4.320312 -6.019531 C 3.996094 -8.339844 3.996094 -10.4375 4.34375 -12.414062 C 4.34375 -12.511719 4.371094 -12.613281 4.394531 -12.738281 C 4.496094 -13.113281 4.621094 -13.636719 4.421875 -14.136719 C 4.046875 -15.007812 2.972656 -15.484375 2.199219 -15.085938 C 1.597656 -14.761719 1.296875 -13.910156 1.171875 -12.4375 C 1.050781 -10.890625 1 -9.839844 1 -9.066406 C 1 -7.390625 1.324219 -1.773438 3.871094 -0.0742188 C 4.445312 0.324219 4.996094 0.5 5.621094 0.5 Z M 5.621094 0.5 "/></g></g></g><g fill="#000000" fill-opacity="0.4"><g transform="translate(344.836538, 65.257756)"><g><path d="M 10.789062 -9.339844 C 11.339844 -9.914062 11.613281 -10.664062 11.613281 -11.464844 C 11.613281 -12.5625 11.089844 -13.660156 10.191406 -14.410156 C 8.992188 -15.410156 7.09375 -15.933594 4.945312 -15.832031 C 3.445312 -15.785156 1.199219 -15.683594 1.050781 -13.636719 C 1 -12.886719 1 -12.164062 1 -11.4375 C 1 -9.015625 1.199219 -6.566406 1.421875 -4.171875 C 1.472656 -3.472656 1.574219 -0.949219 1.949219 -0.5 C 2.472656 0.199219 3.820312 0.226562 4.496094 0.25 C 6.394531 0.273438 8.417969 0.199219 10.265625 -0.425781 C 12.8125 -1.25 14.359375 -3.023438 14.359375 -5.070312 C 14.359375 -6.792969 12.9375 -8.464844 10.789062 -9.339844 Z M 3.871094 -12.886719 C 5.070312 -13.136719 6.269531 -13.0625 7.46875 -12.6875 C 8.464844 -12.386719 8.992188 -11.761719 8.667969 -11.261719 C 7.964844 -10.164062 5.992188 -9.941406 4.46875 -9.765625 L 3.871094 -9.691406 C 3.847656 -10.488281 3.847656 -12.164062 3.871094 -12.886719 Z M 7.042969 -2.648438 C 6.566406 -2.597656 6.320312 -2.597656 5.769531 -2.597656 C 5.542969 -2.574219 5.269531 -2.574219 4.894531 -2.574219 L 4.570312 -2.574219 C 4.519531 -2.574219 4.445312 -2.574219 4.394531 -2.546875 L 4.394531 -2.773438 L 4.097656 -5.917969 C 4.097656 -5.992188 4.070312 -6.070312 4.070312 -6.144531 C 4.019531 -6.320312 3.996094 -6.542969 3.996094 -6.71875 L 4.019531 -6.867188 L 4.820312 -7.019531 C 5.496094 -7.144531 6.21875 -7.265625 6.992188 -7.46875 C 7.042969 -7.492188 7.09375 -7.492188 7.117188 -7.492188 C 7.191406 -7.515625 7.21875 -7.515625 7.191406 -7.515625 C 7.21875 -7.515625 7.21875 -7.515625 7.265625 -7.46875 C 7.34375 -7.367188 7.46875 -7.242188 7.691406 -7.144531 C 8.089844 -6.96875 8.542969 -6.917969 8.914062 -6.867188 C 9.390625 -6.84375 9.816406 -6.792969 10.191406 -6.566406 C 10.914062 -6.167969 11.261719 -5.695312 11.261719 -5.144531 C 11.261719 -3.894531 9.589844 -2.898438 7.042969 -2.648438 Z M 7.042969 -2.648438 "/></g></g></g><g fill="#000000" fill-opacity="0.4"><g transform="translate(367.263309, 65.257756)"><g><path d="M 2.671875 1.449219 C 3.972656 1.449219 4.421875 -0.0234375 4.796875 -1.25 C 4.894531 -1.574219 4.996094 -1.898438 5.09375 -2.171875 C 6.070312 -4.796875 6.941406 -7.441406 7.71875 -10.089844 L 9.589844 -7.191406 C 9.664062 -7.066406 9.738281 -6.917969 9.816406 -6.769531 C 10.191406 -6.09375 10.738281 -5.144531 11.589844 -5.144531 C 11.761719 -5.144531 11.960938 -5.195312 12.1875 -5.292969 L 12.5625 -5.445312 C 12.863281 -5.542969 13.210938 -5.644531 13.460938 -6.042969 C 13.835938 -6.566406 16.007812 -9.789062 16.957031 -11.261719 C 18.230469 -7.816406 19.503906 -4.371094 20.753906 -0.949219 C 20.976562 -0.351562 21.503906 0.0234375 22.128906 0.0234375 C 23.050781 0.0234375 23.777344 -0.722656 23.777344 -1.699219 C 23.777344 -2.296875 22.453125 -5.820312 21.503906 -8.265625 C 21.203125 -9.117188 20.929688 -9.839844 20.753906 -10.265625 C 20.402344 -11.1875 20.078125 -12.0625 19.753906 -12.960938 C 19.703125 -13.160156 19.628906 -13.359375 19.554688 -13.585938 C 19.355469 -14.285156 19.105469 -15.183594 18.53125 -15.582031 C 18.03125 -15.933594 17.40625 -15.933594 16.808594 -15.609375 C 16.707031 -15.535156 16.609375 -15.507812 16.484375 -15.484375 C 16.382812 -15.460938 16.234375 -15.433594 16.109375 -15.359375 C 15.683594 -15.132812 15.410156 -14.710938 15.210938 -14.386719 L 15.085938 -14.183594 C 14.761719 -13.6875 14.433594 -13.210938 14.109375 -12.738281 C 13.386719 -11.636719 12.636719 -10.539062 11.886719 -9.441406 C 11.714844 -9.738281 11.511719 -10.113281 11.289062 -10.488281 C 9.289062 -13.984375 8.292969 -15.335938 7.441406 -15.335938 C 6.691406 -15.335938 5.992188 -14.710938 5.84375 -13.9375 C 5.195312 -13.410156 4.945312 -12.210938 4.746094 -11.3125 C 4.695312 -11.011719 4.621094 -10.738281 4.546875 -10.515625 C 4.121094 -9.117188 3.671875 -7.71875 3.195312 -6.320312 C 2.722656 -4.945312 2.222656 -3.546875 1.699219 -2.199219 C 1.625 -2.046875 1.574219 -1.898438 1.5 -1.722656 C 1.273438 -1.25 1 -0.648438 1 -0.101562 C 1 0.75 1.75 1.449219 2.671875 1.449219 Z M 2.671875 1.449219 "/></g></g></g><g fill="#000000" fill-opacity="0.4"><g transform="translate(399.104807, 65.257756)"><g><path d="M 2.746094 0.25 C 3.722656 0.25 4.546875 -0.523438 4.546875 -1.449219 C 4.546875 -2.597656 4.519531 -3.722656 4.496094 -4.871094 C 4.46875 -5.621094 4.445312 -6.394531 4.445312 -7.167969 C 4.421875 -8.316406 4.394531 -10.464844 4.34375 -12.039062 C 4.34375 -13.0625 4.320312 -13.859375 4.320312 -13.960938 C 4.320312 -14.136719 4.371094 -14.210938 4.519531 -14.386719 C 4.671875 -14.558594 4.894531 -14.785156 4.894531 -15.359375 C 4.894531 -16.007812 4.46875 -16.582031 3.847656 -16.757812 C 3.722656 -16.78125 3.570312 -16.832031 3.398438 -16.882812 C 2.945312 -17.03125 2.371094 -17.207031 1.847656 -16.957031 C 1.125 -16.65625 0.800781 -15.859375 1.148438 -15.058594 C 1.222656 -14.882812 1.296875 -14.761719 1.347656 -14.710938 C 1.421875 -14.585938 1.449219 -14.535156 1.449219 -14.308594 C 1.472656 -13.761719 1.472656 -13.210938 1.472656 -12.6875 L 1.546875 -9.816406 C 1.574219 -7.917969 1.597656 -5.992188 1.648438 -4.097656 C 1.648438 -3.945312 1.648438 -3.746094 1.671875 -3.570312 C 1.699219 -2.996094 1.75 -2.398438 1.472656 -1.972656 C 1.347656 -1.75 1.25 -1.472656 1.25 -1.222656 C 1.25 -0.398438 1.921875 0.25 2.746094 0.25 Z M 2.746094 0.25 "/></g></g></g><g fill="#000000" fill-opacity="0.4"><g transform="translate(412.691204, 65.257756)"><g><path d="M 6.144531 0.25 C 7.09375 0.25 7.890625 -0.574219 7.765625 -1.5 C 7.292969 -5.269531 7.292969 -6.667969 7.316406 -9.441406 C 7.34375 -10.140625 7.34375 -10.964844 7.34375 -11.914062 C 7.34375 -12.4375 7.765625 -12.4375 8.714844 -12.488281 C 8.964844 -12.488281 9.214844 -12.488281 9.488281 -12.511719 C 10.4375 -12.613281 12.4375 -12.660156 12.4375 -14.160156 C 12.4375 -15.058594 11.835938 -15.660156 11.011719 -15.582031 C 10.414062 -15.507812 9.789062 -15.460938 9.191406 -15.410156 C 8.667969 -15.359375 8.167969 -15.308594 7.667969 -15.234375 C 7.71875 -15.558594 7.765625 -15.984375 7.765625 -16.359375 C 7.765625 -17.40625 7.316406 -17.980469 6.492188 -17.980469 C 5.769531 -17.980469 5.09375 -17.507812 4.894531 -16.859375 C 4.820312 -16.558594 4.769531 -15.757812 4.746094 -15.234375 C 4.71875 -15.132812 4.71875 -15.058594 4.71875 -14.984375 C 4.59375 -14.960938 4.46875 -14.960938 4.34375 -14.960938 L 3.746094 -14.882812 C 2.722656 -14.785156 0.375 -14.882812 0.375 -13.1875 C 0.375 -12.238281 1 -11.738281 2.199219 -11.738281 C 2.820312 -11.738281 3.496094 -11.863281 4.046875 -11.960938 L 4.46875 -12.039062 C 4.320312 -9.265625 4.421875 -5.742188 4.71875 -2.523438 C 4.746094 -2.371094 4.746094 -2.222656 4.769531 -2.046875 C 4.820312 -1.148438 4.894531 0.25 6.144531 0.25 Z M 6.144531 0.25 "/></g></g></g><g fill="#000000" fill-opacity="0.4"><g transform="translate(432.570757, 65.257756)"><g><path d="M 6.144531 0.25 C 7.09375 0.25 7.890625 -0.574219 7.765625 -1.5 C 7.292969 -5.269531 7.292969 -6.667969 7.316406 -9.441406 C 7.34375 -10.140625 7.34375 -10.964844 7.34375 -11.914062 C 7.34375 -12.4375 7.765625 -12.4375 8.714844 -12.488281 C 8.964844 -12.488281 9.214844 -12.488281 9.488281 -12.511719 C 10.4375 -12.613281 12.4375 -12.660156 12.4375 -14.160156 C 12.4375 -15.058594 11.835938 -15.660156 11.011719 -15.582031 C 10.414062 -15.507812 9.789062 -15.460938 9.191406 -15.410156 C 8.667969 -15.359375 8.167969 -15.308594 7.667969 -15.234375 C 7.71875 -15.558594 7.765625 -15.984375 7.765625 -16.359375 C 7.765625 -17.40625 7.316406 -17.980469 6.492188 -17.980469 C 5.769531 -17.980469 5.09375 -17.507812 4.894531 -16.859375 C 4.820312 -16.558594 4.769531 -15.757812 4.746094 -15.234375 C 4.71875 -15.132812 4.71875 -15.058594 4.71875 -14.984375 C 4.59375 -14.960938 4.46875 -14.960938 4.34375 -14.960938 L 3.746094 -14.882812 C 2.722656 -14.785156 0.375 -14.882812 0.375 -13.1875 C 0.375 -12.238281 1 -11.738281 2.199219 -11.738281 C 2.820312 -11.738281 3.496094 -11.863281 4.046875 -11.960938 L 4.46875 -12.039062 C 4.320312 -9.265625 4.421875 -5.742188 4.71875 -2.523438 C 4.746094 -2.371094 4.746094 -2.222656 4.769531 -2.046875 C 4.820312 -1.148438 4.894531 0.25 6.144531 0.25 Z M 6.144531 0.25 "/></g></g></g><g fill="#000000" fill-opacity="0.4"><g transform="translate(452.450309, 65.257756)"><g><path d="M 2.746094 0.25 C 3.722656 0.25 4.546875 -0.523438 4.546875 -1.449219 C 4.546875 -2.597656 4.519531 -3.722656 4.496094 -4.871094 C 4.46875 -5.621094 4.445312 -6.394531 4.445312 -7.167969 C 4.421875 -8.316406 4.394531 -10.464844 4.34375 -12.039062 C 4.34375 -13.0625 4.320312 -13.859375 4.320312 -13.960938 C 4.320312 -14.136719 4.371094 -14.210938 4.519531 -14.386719 C 4.671875 -14.558594 4.894531 -14.785156 4.894531 -15.359375 C 4.894531 -16.007812 4.46875 -16.582031 3.847656 -16.757812 C 3.722656 -16.78125 3.570312 -16.832031 3.398438 -16.882812 C 2.945312 -17.03125 2.371094 -17.207031 1.847656 -16.957031 C 1.125 -16.65625 0.800781 -15.859375 1.148438 -15.058594 C 1.222656 -14.882812 1.296875 -14.761719 1.347656 -14.710938 C 1.421875 -14.585938 1.449219 -14.535156 1.449219 -14.308594 C 1.472656 -13.761719 1.472656 -13.210938 1.472656 -12.6875 L 1.546875 -9.816406 C 1.574219 -7.917969 1.597656 -5.992188 1.648438 -4.097656 C 1.648438 -3.945312 1.648438 -3.746094 1.671875 -3.570312 C 1.699219 -2.996094 1.75 -2.398438 1.472656 -1.972656 C 1.347656 -1.75 1.25 -1.472656 1.25 -1.222656 C 1.25 -0.398438 1.921875 0.25 2.746094 0.25 Z M 2.746094 0.25 "/></g></g></g><g fill="#000000" fill-opacity="0.4"><g transform="translate(466.036712, 65.257756)"><g><path d="M 12.585938 -3.847656 C 12.535156 -4.121094 12.511719 -4.371094 12.511719 -4.546875 C 12.386719 -8.066406 12.261719 -11.613281 12.164062 -15.160156 L 12.164062 -15.957031 C 12.164062 -17.558594 11.664062 -18.28125 10.515625 -18.28125 C 9.613281 -18.28125 8.964844 -17.632812 9.015625 -16.757812 C 9.117188 -13.535156 9.214844 -10.339844 9.339844 -7.09375 C 8.316406 -8.617188 7.242188 -10.089844 6.09375 -11.539062 C 5.992188 -11.664062 5.867188 -11.835938 5.769531 -12.011719 C 5.371094 -12.5625 4.84375 -13.335938 4.195312 -13.5625 C 4.296875 -14.960938 4.59375 -16.78125 2.773438 -16.78125 C 1.648438 -16.78125 1.074219 -16.007812 1.074219 -14.511719 L 1.074219 -13.636719 C 0.972656 -10.964844 0.972656 -6.816406 1.25 -3.273438 C 1.324219 -2.121094 1.074219 0.25 3.097656 0.25 C 4.695312 0.25 4.546875 -1.222656 4.421875 -2.324219 C 4.394531 -2.523438 4.371094 -2.722656 4.371094 -2.898438 C 4.21875 -4.945312 4.144531 -7.019531 4.121094 -9.066406 C 6.070312 -6.542969 7.765625 -4.019531 9.214844 -1.472656 C 9.664062 -0.699219 10.4375 -0.175781 11.136719 -0.175781 C 12.136719 -0.175781 12.6875 -0.925781 12.6875 -2.324219 C 12.6875 -2.820312 12.636719 -3.371094 12.585938 -3.847656 Z M 12.585938 -3.847656 "/></g></g></g><g fill="#000000" fill-opacity="0.4"><g transform="translate(487.414627, 65.257756)"><g><path d="M 7.492188 0.25 C 10.914062 0.25 13.1875 -2.148438 13.1875 -5.769531 C 13.1875 -6.367188 13.113281 -7.042969 12.988281 -7.691406 C 13.8125 -7.992188 14.359375 -8.390625 14.359375 -8.964844 C 14.359375 -9.664062 13.6875 -10.339844 12.988281 -10.339844 C 12.585938 -10.339844 12.164062 -10.140625 11.789062 -9.964844 C 11.539062 -9.839844 11.289062 -9.738281 11.0625 -9.691406 C 10.140625 -9.464844 9.164062 -9.339844 8.066406 -9.339844 C 7.84375 -9.339844 7.640625 -9.339844 7.417969 -9.367188 C 7.191406 -9.367188 6.96875 -9.390625 6.742188 -9.390625 C 6.019531 -9.390625 5.445312 -8.789062 5.445312 -8.015625 C 5.445312 -7.042969 6.117188 -6.566406 7.417969 -6.566406 C 7.792969 -6.566406 9.117188 -6.59375 10.390625 -6.792969 L 10.363281 -6.742188 C 10.390625 -6.34375 10.414062 -6.070312 10.4375 -5.894531 C 10.488281 -5.394531 10.488281 -5.417969 10.390625 -4.96875 C 9.988281 -2.746094 7.441406 -1.671875 5.71875 -2.945312 C 4.070312 -4.171875 3.472656 -6.519531 4.046875 -9.464844 C 4.394531 -11.289062 5.917969 -13.886719 7.941406 -14.058594 C 8.441406 -14.085938 8.765625 -13.835938 9.164062 -13.511719 C 9.515625 -13.210938 9.914062 -12.863281 10.488281 -12.863281 C 11.636719 -12.863281 12.289062 -14.308594 11.539062 -15.160156 C 9.839844 -17.105469 6.992188 -17.207031 4.644531 -15.460938 C 1.375 -12.960938 1 -8.765625 1 -7.191406 C 1 -4.296875 1.921875 -2.121094 3.695312 -0.925781 C 4.796875 -0.175781 6.144531 0.25 7.492188 0.25 Z M 7.492188 0.25 "/></g></g></g><g fill="#000000" fill-opacity="0.4"><g transform="translate(509.841401, 65.257756)"><g/></g></g><g fill="#000000" fill-opacity="0.4"><g transform="translate(523.777416, 65.257756)"><g><path d="M 7.84375 0.101562 C 8.765625 0.101562 9.515625 -0.648438 9.414062 -1.546875 L 8.515625 -8.964844 C 8.640625 -8.992188 14.261719 -13.984375 14.261719 -16.382812 C 14.261719 -17.132812 13.636719 -17.730469 12.863281 -17.730469 C 11.789062 -17.730469 11.039062 -16.484375 10.539062 -15.632812 L 10.164062 -15.035156 C 9.265625 -13.8125 8.214844 -12.6875 7.144531 -11.664062 L 6.894531 -11.960938 C 6.167969 -12.863281 5.445312 -13.734375 4.71875 -14.609375 C 4.59375 -14.761719 4.445312 -14.984375 4.296875 -15.210938 C 3.695312 -16.082031 2.847656 -17.332031 1.796875 -17.332031 C 0.972656 -17.332031 0.300781 -16.65625 0.300781 -15.832031 C 0.300781 -15.234375 0.75 -14.734375 1.074219 -14.335938 L 1.222656 -14.160156 C 1.472656 -13.859375 1.699219 -13.5625 1.972656 -13.238281 C 2.722656 -12.335938 3.671875 -11.1875 5.320312 -9.140625 C 5.59375 -8.816406 5.621094 -8.367188 5.667969 -7.84375 C 5.667969 -7.691406 5.667969 -7.515625 5.695312 -7.367188 L 5.945312 -5.394531 C 6.019531 -4.769531 6.117188 -4.171875 6.195312 -3.421875 C 6.21875 -3.273438 6.21875 -3.097656 6.21875 -2.898438 C 6.269531 -1.824219 6.367188 0.101562 7.84375 0.101562 Z M 7.84375 0.101562 "/></g></g></g><g fill="#000000" fill-opacity="0.4"><g transform="translate(546.029361, 65.257756)"><g><path d="M 4.46875 -0.351562 C 7.84375 1.222656 13.011719 -0.449219 14.410156 -5.070312 C 15.007812 -7.09375 14.710938 -9.339844 13.636719 -11.164062 C 12.9375 -12.414062 11.613281 -13.710938 10.3125 -14.433594 C 10.066406 -14.585938 9.789062 -14.636719 9.566406 -14.683594 C 9.265625 -14.734375 9.140625 -14.785156 9.039062 -14.882812 C 7.867188 -15.808594 5.992188 -15.535156 4.320312 -14.261719 C 1.972656 -12.386719 0.375 -9.367188 0.375 -6.816406 C 0.375 -3.996094 1.972656 -1.5 4.46875 -0.351562 Z M 7.367188 -2.898438 C 5.34375 -2.898438 3.472656 -4.695312 3.472656 -6.667969 C 3.472656 -7.765625 4.820312 -11.261719 6.71875 -12.085938 C 6.992188 -12.1875 7.191406 -12.210938 7.441406 -12.136719 C 8.839844 -11.761719 8.089844 -12.113281 9.089844 -11.511719 C 10.289062 -10.738281 11.164062 -9.488281 11.4375 -8.167969 C 11.863281 -5.867188 10.3125 -2.898438 7.367188 -2.898438 Z M 7.367188 -2.898438 "/></g></g></g><g fill="#000000" fill-opacity="0.4"><g transform="translate(568.805735, 65.257756)"><g><path d="M 5.621094 0.5 C 7.09375 0.5 8.714844 -0.648438 9.765625 -2.371094 C 10.515625 -3.722656 10.9375 -5.269531 11.089844 -7.019531 C 11.164062 -8.542969 11.113281 -9.914062 10.914062 -11.636719 C 10.890625 -11.789062 10.890625 -11.960938 10.863281 -12.136719 C 10.789062 -13.160156 10.664062 -14.761719 9.214844 -14.761719 C 8.316406 -14.761719 7.566406 -14.058594 7.566406 -13.210938 L 7.617188 -12.785156 C 7.742188 -11.914062 8.042969 -9.863281 8.042969 -8.167969 C 8.042969 -7.242188 7.941406 -5.667969 7.492188 -4.371094 C 7.21875 -3.597656 6.617188 -3.070312 6.042969 -3.070312 C 4.945312 -3.070312 4.519531 -4.621094 4.320312 -6.019531 C 3.996094 -8.339844 3.996094 -10.4375 4.34375 -12.414062 C 4.34375 -12.511719 4.371094 -12.613281 4.394531 -12.738281 C 4.496094 -13.113281 4.621094 -13.636719 4.421875 -14.136719 C 4.046875 -15.007812 2.972656 -15.484375 2.199219 -15.085938 C 1.597656 -14.761719 1.296875 -13.910156 1.171875 -12.4375 C 1.050781 -10.890625 1 -9.839844 1 -9.066406 C 1 -7.390625 1.324219 -1.773438 3.871094 -0.0742188 C 4.445312 0.324219 4.996094 0.5 5.621094 0.5 Z M 5.621094 0.5 "/></g></g></g><g fill="#000000" fill-opacity="0.4"><g transform="translate(588.011012, 65.257756)"><g><path d="M 3.070312 0.25 C 3.421875 0.25 3.820312 0.0742188 4.144531 -0.226562 C 4.769531 -0.773438 4.671875 -1.5 4.59375 -2.023438 C 4.445312 -3.023438 4.320312 -4.046875 4.21875 -5.21875 C 5.019531 -5.269531 5.820312 -5.542969 6.269531 -5.71875 C 6.542969 -5.820312 6.59375 -5.820312 6.59375 -5.820312 C 6.667969 -5.820312 6.894531 -5.417969 7.542969 -3.746094 C 7.816406 -3.070312 8.066406 -2.324219 8.316406 -1.375 C 8.492188 -0.75 8.765625 0.0507812 9.816406 0.0507812 C 10.839844 0.0507812 11.613281 -0.925781 11.386719 -1.875 C 10.914062 -3.722656 10.191406 -5.570312 9.242188 -7.390625 C 10.289062 -8.339844 10.863281 -9.613281 10.863281 -10.9375 C 10.863281 -12.460938 10.066406 -13.835938 8.691406 -14.660156 C 7.167969 -15.558594 5.371094 -15.683594 4.21875 -15.683594 C 2.574219 -15.683594 1.574219 -15.234375 1.273438 -14.308594 C 0.972656 -13.335938 1 -10.164062 1 -9.441406 C 1 -7.542969 1.125 -4.34375 1.625 -1.273438 C 1.75 -0.398438 2.347656 0.25 3.070312 0.25 Z M 4.070312 -8.265625 C 4.019531 -9.214844 4.070312 -11.238281 4.171875 -12.636719 C 5.070312 -12.710938 5.820312 -12.636719 6.566406 -12.386719 C 7.390625 -12.085938 7.867188 -11.539062 7.867188 -10.839844 C 7.867188 -10.039062 7.117188 -9.339844 5.820312 -8.816406 C 5.246094 -8.589844 4.644531 -8.339844 4.070312 -8.265625 Z M 4.070312 -8.265625 "/></g></g></g><g fill="#000000" fill-opacity="1"><g transform="translate(302.999687, 64.153931)"><g><path d="M 8.117188 0.199219 C 11.136719 -0.175781 12.8125 -2.023438 12.8125 -4.96875 C 12.8125 -6.394531 12.460938 -7.691406 11.789062 -8.617188 C 10.9375 -9.839844 9.414062 -10.339844 8.042969 -10.539062 C 7.265625 -10.664062 6.144531 -10.714844 6.144531 -11.636719 C 6.144531 -12.386719 7.066406 -13.6875 7.890625 -14.109375 C 8.390625 -14.359375 9.066406 -14.460938 9.816406 -14.410156 C 10.089844 -14.386719 10.363281 -14.285156 10.664062 -14.183594 C 11.011719 -14.058594 11.4375 -13.910156 11.863281 -13.910156 C 12.710938 -13.910156 13.460938 -14.660156 13.460938 -15.484375 C 13.460938 -15.984375 13.1875 -16.382812 12.6875 -16.609375 C 11.789062 -17.03125 10.738281 -17.257812 9.613281 -17.257812 C 6.21875 -17.257812 3.546875 -15.234375 3.195312 -12.3125 C 2.921875 -9.839844 4.171875 -8.441406 7.316406 -7.59375 C 9.164062 -7.09375 9.789062 -6.542969 9.789062 -5.371094 C 9.789062 -4.695312 9.539062 -4.019531 9.117188 -3.597656 C 8.089844 -2.621094 5.417969 -2.597656 3.921875 -3.546875 C 3.644531 -3.746094 3.546875 -4.019531 3.445312 -4.371094 C 3.347656 -4.71875 3.222656 -5.121094 2.820312 -5.417969 C 2.023438 -5.992188 0.875 -5.792969 0.550781 -4.996094 C 0.425781 -4.746094 0.375 -4.496094 0.375 -4.21875 C 0.375 -2.820312 1.898438 -1.398438 2.871094 -0.824219 C 4.644531 0.175781 6.894531 0.375 8.117188 0.199219 Z M 8.117188 0.199219 "/></g></g></g><g fill="#000000" fill-opacity="1"><g transform="translate(324.527434, 64.153931)"><g><path d="M 5.621094 0.5 C 7.09375 0.5 8.714844 -0.648438 9.765625 -2.371094 C 10.515625 -3.722656 10.9375 -5.269531 11.089844 -7.019531 C 11.164062 -8.542969 11.113281 -9.914062 10.914062 -11.636719 C 10.890625 -11.789062 10.890625 -11.960938 10.863281 -12.136719 C 10.789062 -13.160156 10.664062 -14.761719 9.214844 -14.761719 C 8.316406 -14.761719 7.566406 -14.058594 7.566406 -13.210938 L 7.617188 -12.785156 C 7.742188 -11.914062 8.042969 -9.863281 8.042969 -8.167969 C 8.042969 -7.242188 7.941406 -5.667969 7.492188 -4.371094 C 7.21875 -3.597656 6.617188 -3.070312 6.042969 -3.070312 C 4.945312 -3.070312 4.519531 -4.621094 4.320312 -6.019531 C 3.996094 -8.339844 3.996094 -10.4375 4.34375 -12.414062 C 4.34375 -12.511719 4.371094 -12.613281 4.394531 -12.738281 C 4.496094 -13.113281 4.621094 -13.636719 4.421875 -14.136719 C 4.046875 -15.007812 2.972656 -15.484375 2.199219 -15.085938 C 1.597656 -14.761719 1.296875 -13.910156 1.171875 -12.4375 C 1.050781 -10.890625 1 -9.839844 1 -9.066406 C 1 -7.390625 1.324219 -1.773438 3.871094 -0.0742188 C 4.445312 0.324219 4.996094 0.5 5.621094 0.5 Z M 5.621094 0.5 "/></g></g></g><g fill="#000000" fill-opacity="1"><g transform="translate(343.732706, 64.153931)"><g><path d="M 10.789062 -9.339844 C 11.339844 -9.914062 11.613281 -10.664062 11.613281 -11.464844 C 11.613281 -12.5625 11.089844 -13.660156 10.191406 -14.410156 C 8.992188 -15.410156 7.09375 -15.933594 4.945312 -15.832031 C 3.445312 -15.785156 1.199219 -15.683594 1.050781 -13.636719 C 1 -12.886719 1 -12.164062 1 -11.4375 C 1 -9.015625 1.199219 -6.566406 1.421875 -4.171875 C 1.472656 -3.472656 1.574219 -0.949219 1.949219 -0.5 C 2.472656 0.199219 3.820312 0.226562 4.496094 0.25 C 6.394531 0.273438 8.417969 0.199219 10.265625 -0.425781 C 12.8125 -1.25 14.359375 -3.023438 14.359375 -5.070312 C 14.359375 -6.792969 12.9375 -8.464844 10.789062 -9.339844 Z M 3.871094 -12.886719 C 5.070312 -13.136719 6.269531 -13.0625 7.46875 -12.6875 C 8.464844 -12.386719 8.992188 -11.761719 8.667969 -11.261719 C 7.964844 -10.164062 5.992188 -9.941406 4.46875 -9.765625 L 3.871094 -9.691406 C 3.847656 -10.488281 3.847656 -12.164062 3.871094 -12.886719 Z M 7.042969 -2.648438 C 6.566406 -2.597656 6.320312 -2.597656 5.769531 -2.597656 C 5.542969 -2.574219 5.269531 -2.574219 4.894531 -2.574219 L 4.570312 -2.574219 C 4.519531 -2.574219 4.445312 -2.574219 4.394531 -2.546875 L 4.394531 -2.773438 L 4.097656 -5.917969 C 4.097656 -5.992188 4.070312 -6.070312 4.070312 -6.144531 C 4.019531 -6.320312 3.996094 -6.542969 3.996094 -6.71875 L 4.019531 -6.867188 L 4.820312 -7.019531 C 5.496094 -7.144531 6.21875 -7.265625 6.992188 -7.46875 C 7.042969 -7.492188 7.09375 -7.492188 7.117188 -7.492188 C 7.191406 -7.515625 7.21875 -7.515625 7.191406 -7.515625 C 7.21875 -7.515625 7.21875 -7.515625 7.265625 -7.46875 C 7.34375 -7.367188 7.46875 -7.242188 7.691406 -7.144531 C 8.089844 -6.96875 8.542969 -6.917969 8.914062 -6.867188 C 9.390625 -6.84375 9.816406 -6.792969 10.191406 -6.566406 C 10.914062 -6.167969 11.261719 -5.695312 11.261719 -5.144531 C 11.261719 -3.894531 9.589844 -2.898438 7.042969 -2.648438 Z M 7.042969 -2.648438 "/></g></g></g><g fill="#000000" fill-opacity="1"><g transform="translate(366.159477, 64.153931)"><g><path d="M 2.671875 1.449219 C 3.972656 1.449219 4.421875 -0.0234375 4.796875 -1.25 C 4.894531 -1.574219 4.996094 -1.898438 5.09375 -2.171875 C 6.070312 -4.796875 6.941406 -7.441406 7.71875 -10.089844 L 9.589844 -7.191406 C 9.664062 -7.066406 9.738281 -6.917969 9.816406 -6.769531 C 10.191406 -6.09375 10.738281 -5.144531 11.589844 -5.144531 C 11.761719 -5.144531 11.960938 -5.195312 12.1875 -5.292969 L 12.5625 -5.445312 C 12.863281 -5.542969 13.210938 -5.644531 13.460938 -6.042969 C 13.835938 -6.566406 16.007812 -9.789062 16.957031 -11.261719 C 18.230469 -7.816406 19.503906 -4.371094 20.753906 -0.949219 C 20.976562 -0.351562 21.503906 0.0234375 22.128906 0.0234375 C 23.050781 0.0234375 23.777344 -0.722656 23.777344 -1.699219 C 23.777344 -2.296875 22.453125 -5.820312 21.503906 -8.265625 C 21.203125 -9.117188 20.929688 -9.839844 20.753906 -10.265625 C 20.402344 -11.1875 20.078125 -12.0625 19.753906 -12.960938 C 19.703125 -13.160156 19.628906 -13.359375 19.554688 -13.585938 C 19.355469 -14.285156 19.105469 -15.183594 18.53125 -15.582031 C 18.03125 -15.933594 17.40625 -15.933594 16.808594 -15.609375 C 16.707031 -15.535156 16.609375 -15.507812 16.484375 -15.484375 C 16.382812 -15.460938 16.234375 -15.433594 16.109375 -15.359375 C 15.683594 -15.132812 15.410156 -14.710938 15.210938 -14.386719 L 15.085938 -14.183594 C 14.761719 -13.6875 14.433594 -13.210938 14.109375 -12.738281 C 13.386719 -11.636719 12.636719 -10.539062 11.886719 -9.441406 C 11.714844 -9.738281 11.511719 -10.113281 11.289062 -10.488281 C 9.289062 -13.984375 8.292969 -15.335938 7.441406 -15.335938 C 6.691406 -15.335938 5.992188 -14.710938 5.84375 -13.9375 C 5.195312 -13.410156 4.945312 -12.210938 4.746094 -11.3125 C 4.695312 -11.011719 4.621094 -10.738281 4.546875 -10.515625 C 4.121094 -9.117188 3.671875 -7.71875 3.195312 -6.320312 C 2.722656 -4.945312 2.222656 -3.546875 1.699219 -2.199219 C 1.625 -2.046875 1.574219 -1.898438 1.5 -1.722656 C 1.273438 -1.25 1 -0.648438 1 -0.101562 C 1 0.75 1.75 1.449219 2.671875 1.449219 Z M 2.671875 1.449219 "/></g></g></g><g fill="#000000" fill-opacity="1"><g transform="translate(398.000975, 64.153931)"><g><path d="M 2.746094 0.25 C 3.722656 0.25 4.546875 -0.523438 4.546875 -1.449219 C 4.546875 -2.597656 4.519531 -3.722656 4.496094 -4.871094 C 4.46875 -5.621094 4.445312 -6.394531 4.445312 -7.167969 C 4.421875 -8.316406 4.394531 -10.464844 4.34375 -12.039062 C 4.34375 -13.0625 4.320312 -13.859375 4.320312 -13.960938 C 4.320312 -14.136719 4.371094 -14.210938 4.519531 -14.386719 C 4.671875 -14.558594 4.894531 -14.785156 4.894531 -15.359375 C 4.894531 -16.007812 4.46875 -16.582031 3.847656 -16.757812 C 3.722656 -16.78125 3.570312 -16.832031 3.398438 -16.882812 C 2.945312 -17.03125 2.371094 -17.207031 1.847656 -16.957031 C 1.125 -16.65625 0.800781 -15.859375 1.148438 -15.058594 C 1.222656 -14.882812 1.296875 -14.761719 1.347656 -14.710938 C 1.421875 -14.585938 1.449219 -14.535156 1.449219 -14.308594 C 1.472656 -13.761719 1.472656 -13.210938 1.472656 -12.6875 L 1.546875 -9.816406 C 1.574219 -7.917969 1.597656 -5.992188 1.648438 -4.097656 C 1.648438 -3.945312 1.648438 -3.746094 1.671875 -3.570312 C 1.699219 -2.996094 1.75 -2.398438 1.472656 -1.972656 C 1.347656 -1.75 1.25 -1.472656 1.25 -1.222656 C 1.25 -0.398438 1.921875 0.25 2.746094 0.25 Z M 2.746094 0.25 "/></g></g></g><g fill="#000000" fill-opacity="1"><g transform="translate(411.587372, 64.153931)"><g><path d="M 6.144531 0.25 C 7.09375 0.25 7.890625 -0.574219 7.765625 -1.5 C 7.292969 -5.269531 7.292969 -6.667969 7.316406 -9.441406 C 7.34375 -10.140625 7.34375 -10.964844 7.34375 -11.914062 C 7.34375 -12.4375 7.765625 -12.4375 8.714844 -12.488281 C 8.964844 -12.488281 9.214844 -12.488281 9.488281 -12.511719 C 10.4375 -12.613281 12.4375 -12.660156 12.4375 -14.160156 C 12.4375 -15.058594 11.835938 -15.660156 11.011719 -15.582031 C 10.414062 -15.507812 9.789062 -15.460938 9.191406 -15.410156 C 8.667969 -15.359375 8.167969 -15.308594 7.667969 -15.234375 C 7.71875 -15.558594 7.765625 -15.984375 7.765625 -16.359375 C 7.765625 -17.40625 7.316406 -17.980469 6.492188 -17.980469 C 5.769531 -17.980469 5.09375 -17.507812 4.894531 -16.859375 C 4.820312 -16.558594 4.769531 -15.757812 4.746094 -15.234375 C 4.71875 -15.132812 4.71875 -15.058594 4.71875 -14.984375 C 4.59375 -14.960938 4.46875 -14.960938 4.34375 -14.960938 L 3.746094 -14.882812 C 2.722656 -14.785156 0.375 -14.882812 0.375 -13.1875 C 0.375 -12.238281 1 -11.738281 2.199219 -11.738281 C 2.820312 -11.738281 3.496094 -11.863281 4.046875 -11.960938 L 4.46875 -12.039062 C 4.320312 -9.265625 4.421875 -5.742188 4.71875 -2.523438 C 4.746094 -2.371094 4.746094 -2.222656 4.769531 -2.046875 C 4.820312 -1.148438 4.894531 0.25 6.144531 0.25 Z M 6.144531 0.25 "/></g></g></g><g fill="#000000" fill-opacity="1"><g transform="translate(431.466924, 64.153931)"><g><path d="M 6.144531 0.25 C 7.09375 0.25 7.890625 -0.574219 7.765625 -1.5 C 7.292969 -5.269531 7.292969 -6.667969 7.316406 -9.441406 C 7.34375 -10.140625 7.34375 -10.964844 7.34375 -11.914062 C 7.34375 -12.4375 7.765625 -12.4375 8.714844 -12.488281 C 8.964844 -12.488281 9.214844 -12.488281 9.488281 -12.511719 C 10.4375 -12.613281 12.4375 -12.660156 12.4375 -14.160156 C 12.4375 -15.058594 11.835938 -15.660156 11.011719 -15.582031 C 10.414062 -15.507812 9.789062 -15.460938 9.191406 -15.410156 C 8.667969 -15.359375 8.167969 -15.308594 7.667969 -15.234375 C 7.71875 -15.558594 7.765625 -15.984375 7.765625 -16.359375 C 7.765625 -17.40625 7.316406 -17.980469 6.492188 -17.980469 C 5.769531 -17.980469 5.09375 -17.507812 4.894531 -16.859375 C 4.820312 -16.558594 4.769531 -15.757812 4.746094 -15.234375 C 4.71875 -15.132812 4.71875 -15.058594 4.71875 -14.984375 C 4.59375 -14.960938 4.46875 -14.960938 4.34375 -14.960938 L 3.746094 -14.882812 C 2.722656 -14.785156 0.375 -14.882812 0.375 -13.1875 C 0.375 -12.238281 1 -11.738281 2.199219 -11.738281 C 2.820312 -11.738281 3.496094 -11.863281 4.046875 -11.960938 L 4.46875 -12.039062 C 4.320312 -9.265625 4.421875 -5.742188 4.71875 -2.523438 C 4.746094 -2.371094 4.746094 -2.222656 4.769531 -2.046875 C 4.820312 -1.148438 4.894531 0.25 6.144531 0.25 Z M 6.144531 0.25 "/></g></g></g><g fill="#000000" fill-opacity="1"><g transform="translate(451.346476, 64.153931)"><g><path d="M 2.746094 0.25 C 3.722656 0.25 4.546875 -0.523438 4.546875 -1.449219 C 4.546875 -2.597656 4.519531 -3.722656 4.496094 -4.871094 C 4.46875 -5.621094 4.445312 -6.394531 4.445312 -7.167969 C 4.421875 -8.316406 4.394531 -10.464844 4.34375 -12.039062 C 4.34375 -13.0625 4.320312 -13.859375 4.320312 -13.960938 C 4.320312 -14.136719 4.371094 -14.210938 4.519531 -14.386719 C 4.671875 -14.558594 4.894531 -14.785156 4.894531 -15.359375 C 4.894531 -16.007812 4.46875 -16.582031 3.847656 -16.757812 C 3.722656 -16.78125 3.570312 -16.832031 3.398438 -16.882812 C 2.945312 -17.03125 2.371094 -17.207031 1.847656 -16.957031 C 1.125 -16.65625 0.800781 -15.859375 1.148438 -15.058594 C 1.222656 -14.882812 1.296875 -14.761719 1.347656 -14.710938 C 1.421875 -14.585938 1.449219 -14.535156 1.449219 -14.308594 C 1.472656 -13.761719 1.472656 -13.210938 1.472656 -12.6875 L 1.546875 -9.816406 C 1.574219 -7.917969 1.597656 -5.992188 1.648438 -4.097656 C 1.648438 -3.945312 1.648438 -3.746094 1.671875 -3.570312 C 1.699219 -2.996094 1.75 -2.398438 1.472656 -1.972656 C 1.347656 -1.75 1.25 -1.472656 1.25 -1.222656 C 1.25 -0.398438 1.921875 0.25 2.746094 0.25 Z M 2.746094 0.25 "/></g></g></g><g fill="#000000" fill-opacity="1"><g transform="translate(464.932879, 64.153931)"><g><path d="M 12.585938 -3.847656 C 12.535156 -4.121094 12.511719 -4.371094 12.511719 -4.546875 C 12.386719 -8.066406 12.261719 -11.613281 12.164062 -15.160156 L 12.164062 -15.957031 C 12.164062 -17.558594 11.664062 -18.28125 10.515625 -18.28125 C 9.613281 -18.28125 8.964844 -17.632812 9.015625 -16.757812 C 9.117188 -13.535156 9.214844 -10.339844 9.339844 -7.09375 C 8.316406 -8.617188 7.242188 -10.089844 6.09375 -11.539062 C 5.992188 -11.664062 5.867188 -11.835938 5.769531 -12.011719 C 5.371094 -12.5625 4.84375 -13.335938 4.195312 -13.5625 C 4.296875 -14.960938 4.59375 -16.78125 2.773438 -16.78125 C 1.648438 -16.78125 1.074219 -16.007812 1.074219 -14.511719 L 1.074219 -13.636719 C 0.972656 -10.964844 0.972656 -6.816406 1.25 -3.273438 C 1.324219 -2.121094 1.074219 0.25 3.097656 0.25 C 4.695312 0.25 4.546875 -1.222656 4.421875 -2.324219 C 4.394531 -2.523438 4.371094 -2.722656 4.371094 -2.898438 C 4.21875 -4.945312 4.144531 -7.019531 4.121094 -9.066406 C 6.070312 -6.542969 7.765625 -4.019531 9.214844 -1.472656 C 9.664062 -0.699219 10.4375 -0.175781 11.136719 -0.175781 C 12.136719 -0.175781 12.6875 -0.925781 12.6875 -2.324219 C 12.6875 -2.820312 12.636719 -3.371094 12.585938 -3.847656 Z M 12.585938 -3.847656 "/></g></g></g><g fill="#000000" fill-opacity="1"><g transform="translate(486.310795, 64.153931)"><g><path d="M 7.492188 0.25 C 10.914062 0.25 13.1875 -2.148438 13.1875 -5.769531 C 13.1875 -6.367188 13.113281 -7.042969 12.988281 -7.691406 C 13.8125 -7.992188 14.359375 -8.390625 14.359375 -8.964844 C 14.359375 -9.664062 13.6875 -10.339844 12.988281 -10.339844 C 12.585938 -10.339844 12.164062 -10.140625 11.789062 -9.964844 C 11.539062 -9.839844 11.289062 -9.738281 11.0625 -9.691406 C 10.140625 -9.464844 9.164062 -9.339844 8.066406 -9.339844 C 7.84375 -9.339844 7.640625 -9.339844 7.417969 -9.367188 C 7.191406 -9.367188 6.96875 -9.390625 6.742188 -9.390625 C 6.019531 -9.390625 5.445312 -8.789062 5.445312 -8.015625 C 5.445312 -7.042969 6.117188 -6.566406 7.417969 -6.566406 C 7.792969 -6.566406 9.117188 -6.59375 10.390625 -6.792969 L 10.363281 -6.742188 C 10.390625 -6.34375 10.414062 -6.070312 10.4375 -5.894531 C 10.488281 -5.394531 10.488281 -5.417969 10.390625 -4.96875 C 9.988281 -2.746094 7.441406 -1.671875 5.71875 -2.945312 C 4.070312 -4.171875 3.472656 -6.519531 4.046875 -9.464844 C 4.394531 -11.289062 5.917969 -13.886719 7.941406 -14.058594 C 8.441406 -14.085938 8.765625 -13.835938 9.164062 -13.511719 C 9.515625 -13.210938 9.914062 -12.863281 10.488281 -12.863281 C 11.636719 -12.863281 12.289062 -14.308594 11.539062 -15.160156 C 9.839844 -17.105469 6.992188 -17.207031 4.644531 -15.460938 C 1.375 -12.960938 1 -8.765625 1 -7.191406 C 1 -4.296875 1.921875 -2.121094 3.695312 -0.925781 C 4.796875 -0.175781 6.144531 0.25 7.492188 0.25 Z M 7.492188 0.25 "/></g></g></g><g fill="#000000" fill-opacity="1"><g transform="translate(508.737569, 64.153931)"><g/></g></g><g fill="#000000" fill-opacity="1"><g transform="translate(522.673584, 64.153931)"><g><path d="M 7.84375 0.101562 C 8.765625 0.101562 9.515625 -0.648438 9.414062 -1.546875 L 8.515625 -8.964844 C 8.640625 -8.992188 14.261719 -13.984375 14.261719 -16.382812 C 14.261719 -17.132812 13.636719 -17.730469 12.863281 -17.730469 C 11.789062 -17.730469 11.039062 -16.484375 10.539062 -15.632812 L 10.164062 -15.035156 C 9.265625 -13.8125 8.214844 -12.6875 7.144531 -11.664062 L 6.894531 -11.960938 C 6.167969 -12.863281 5.445312 -13.734375 4.71875 -14.609375 C 4.59375 -14.761719 4.445312 -14.984375 4.296875 -15.210938 C 3.695312 -16.082031 2.847656 -17.332031 1.796875 -17.332031 C 0.972656 -17.332031 0.300781 -16.65625 0.300781 -15.832031 C 0.300781 -15.234375 0.75 -14.734375 1.074219 -14.335938 L 1.222656 -14.160156 C 1.472656 -13.859375 1.699219 -13.5625 1.972656 -13.238281 C 2.722656 -12.335938 3.671875 -11.1875 5.320312 -9.140625 C 5.59375 -8.816406 5.621094 -8.367188 5.667969 -7.84375 C 5.667969 -7.691406 5.667969 -7.515625 5.695312 -7.367188 L 5.945312 -5.394531 C 6.019531 -4.769531 6.117188 -4.171875 6.195312 -3.421875 C 6.21875 -3.273438 6.21875 -3.097656 6.21875 -2.898438 C 6.269531 -1.824219 6.367188 0.101562 7.84375 0.101562 Z M 7.84375 0.101562 "/></g></g></g><g fill="#000000" fill-opacity="1"><g transform="translate(544.925528, 64.153931)"><g><path d="M 4.46875 -0.351562 C 7.84375 1.222656 13.011719 -0.449219 14.410156 -5.070312 C 15.007812 -7.09375 14.710938 -9.339844 13.636719 -11.164062 C 12.9375 -12.414062 11.613281 -13.710938 10.3125 -14.433594 C 10.066406 -14.585938 9.789062 -14.636719 9.566406 -14.683594 C 9.265625 -14.734375 9.140625 -14.785156 9.039062 -14.882812 C 7.867188 -15.808594 5.992188 -15.535156 4.320312 -14.261719 C 1.972656 -12.386719 0.375 -9.367188 0.375 -6.816406 C 0.375 -3.996094 1.972656 -1.5 4.46875 -0.351562 Z M 7.367188 -2.898438 C 5.34375 -2.898438 3.472656 -4.695312 3.472656 -6.667969 C 3.472656 -7.765625 4.820312 -11.261719 6.71875 -12.085938 C 6.992188 -12.1875 7.191406 -12.210938 7.441406 -12.136719 C 8.839844 -11.761719 8.089844 -12.113281 9.089844 -11.511719 C 10.289062 -10.738281 11.164062 -9.488281 11.4375 -8.167969 C 11.863281 -5.867188 10.3125 -2.898438 7.367188 -2.898438 Z M 7.367188 -2.898438 "/></g></g></g><g fill="#000000" fill-opacity="1"><g transform="translate(567.701903, 64.153931)"><g><path d="M 5.621094 0.5 C 7.09375 0.5 8.714844 -0.648438 9.765625 -2.371094 C 10.515625 -3.722656 10.9375 -5.269531 11.089844 -7.019531 C 11.164062 -8.542969 11.113281 -9.914062 10.914062 -11.636719 C 10.890625 -11.789062 10.890625 -11.960938 10.863281 -12.136719 C 10.789062 -13.160156 10.664062 -14.761719 9.214844 -14.761719 C 8.316406 -14.761719 7.566406 -14.058594 7.566406 -13.210938 L 7.617188 -12.785156 C 7.742188 -11.914062 8.042969 -9.863281 8.042969 -8.167969 C 8.042969 -7.242188 7.941406 -5.667969 7.492188 -4.371094 C 7.21875 -3.597656 6.617188 -3.070312 6.042969 -3.070312 C 4.945312 -3.070312 4.519531 -4.621094 4.320312 -6.019531 C 3.996094 -8.339844 3.996094 -10.4375 4.34375 -12.414062 C 4.34375 -12.511719 4.371094 -12.613281 4.394531 -12.738281 C 4.496094 -13.113281 4.621094 -13.636719 4.421875 -14.136719 C 4.046875 -15.007812 2.972656 -15.484375 2.199219 -15.085938 C 1.597656 -14.761719 1.296875 -13.910156 1.171875 -12.4375 C 1.050781 -10.890625 1 -9.839844 1 -9.066406 C 1 -7.390625 1.324219 -1.773438 3.871094 -0.0742188 C 4.445312 0.324219 4.996094 0.5 5.621094 0.5 Z M 5.621094 0.5 "/></g></g></g><g fill="#000000" fill-opacity="1"><g transform="translate(586.907179, 64.153931)"><g><path d="M 3.070312 0.25 C 3.421875 0.25 3.820312 0.0742188 4.144531 -0.226562 C 4.769531 -0.773438 4.671875 -1.5 4.59375 -2.023438 C 4.445312 -3.023438 4.320312 -4.046875 4.21875 -5.21875 C 5.019531 -5.269531 5.820312 -5.542969 6.269531 -5.71875 C 6.542969 -5.820312 6.59375 -5.820312 6.59375 -5.820312 C 6.667969 -5.820312 6.894531 -5.417969 7.542969 -3.746094 C 7.816406 -3.070312 8.066406 -2.324219 8.316406 -1.375 C 8.492188 -0.75 8.765625 0.0507812 9.816406 0.0507812 C 10.839844 0.0507812 11.613281 -0.925781 11.386719 -1.875 C 10.914062 -3.722656 10.191406 -5.570312 9.242188 -7.390625 C 10.289062 -8.339844 10.863281 -9.613281 10.863281 -10.9375 C 10.863281 -12.460938 10.066406 -13.835938 8.691406 -14.660156 C 7.167969 -15.558594 5.371094 -15.683594 4.21875 -15.683594 C 2.574219 -15.683594 1.574219 -15.234375 1.273438 -14.308594 C 0.972656 -13.335938 1 -10.164062 1 -9.441406 C 1 -7.542969 1.125 -4.34375 1.625 -1.273438 C 1.75 -0.398438 2.347656 0.25 3.070312 0.25 Z M 4.070312 -8.265625 C 4.019531 -9.214844 4.070312 -11.238281 4.171875 -12.636719 C 5.070312 -12.710938 5.820312 -12.636719 6.566406 -12.386719 C 7.390625 -12.085938 7.867188 -11.539062 7.867188 -10.839844 C 7.867188 -10.039062 7.117188 -9.339844 5.820312 -8.816406 C 5.246094 -8.589844 4.644531 -8.339844 4.070312 -8.265625 Z M 4.070312 -8.265625 "/></g></g></g><g fill="#000000" fill-opacity="0.4"><g transform="translate(377.968303, 99.725646)"><g><path d="M 3.070312 0.25 C 3.421875 0.25 3.820312 0.0742188 4.144531 -0.226562 C 4.769531 -0.773438 4.671875 -1.5 4.59375 -2.023438 C 4.445312 -3.023438 4.320312 -4.046875 4.21875 -5.21875 C 5.019531 -5.269531 5.820312 -5.542969 6.269531 -5.71875 C 6.542969 -5.820312 6.59375 -5.820312 6.59375 -5.820312 C 6.667969 -5.820312 6.894531 -5.417969 7.542969 -3.746094 C 7.816406 -3.070312 8.066406 -2.324219 8.316406 -1.375 C 8.492188 -0.75 8.765625 0.0507812 9.816406 0.0507812 C 10.839844 0.0507812 11.613281 -0.925781 11.386719 -1.875 C 10.914062 -3.722656 10.191406 -5.570312 9.242188 -7.390625 C 10.289062 -8.339844 10.863281 -9.613281 10.863281 -10.9375 C 10.863281 -12.460938 10.066406 -13.835938 8.691406 -14.660156 C 7.167969 -15.558594 5.371094 -15.683594 4.21875 -15.683594 C 2.574219 -15.683594 1.574219 -15.234375 1.273438 -14.308594 C 0.972656 -13.335938 1 -10.164062 1 -9.441406 C 1 -7.542969 1.125 -4.34375 1.625 -1.273438 C 1.75 -0.398438 2.347656 0.25 3.070312 0.25 Z M 4.070312 -8.265625 C 4.019531 -9.214844 4.070312 -11.238281 4.171875 -12.636719 C 5.070312 -12.710938 5.820312 -12.636719 6.566406 -12.386719 C 7.390625 -12.085938 7.867188 -11.539062 7.867188 -10.839844 C 7.867188 -10.039062 7.117188 -9.339844 5.820312 -8.816406 C 5.246094 -8.589844 4.644531 -8.339844 4.070312 -8.265625 Z M 4.070312 -8.265625 "/></g></g></g><g fill="#000000" fill-opacity="0.4"><g transform="translate(397.448286, 99.725646)"><g><path d="M 6.441406 0.25 C 7.816406 0.25 8.515625 -0.300781 8.515625 -1.375 C 8.515625 -2.121094 7.992188 -2.695312 7.242188 -2.746094 C 7.117188 -2.746094 6.894531 -2.773438 6.644531 -2.796875 C 5.820312 -2.898438 4.519531 -3.023438 4.21875 -3.046875 C 3.894531 -3.070312 4.019531 -2.621094 3.996094 -6.269531 C 3.996094 -6.46875 3.945312 -6.46875 4.246094 -6.492188 C 4.320312 -6.519531 4.421875 -6.519531 4.546875 -6.542969 C 4.695312 -6.566406 4.894531 -6.566406 5.121094 -6.59375 C 5.96875 -6.617188 7.265625 -6.644531 7.265625 -8.015625 C 7.265625 -8.417969 7.09375 -8.867188 6.816406 -9.164062 C 6.492188 -9.515625 6.042969 -9.691406 5.496094 -9.691406 C 5.09375 -9.691406 4.671875 -9.589844 4.296875 -9.515625 C 4.21875 -9.488281 4.144531 -9.488281 4.070312 -9.464844 C 4.097656 -10.515625 4.144531 -11.539062 4.21875 -12.5625 C 4.246094 -12.910156 4.84375 -13.136719 5.894531 -13.136719 C 6.292969 -13.136719 6.644531 -13.085938 6.917969 -13.0625 C 7.066406 -13.035156 7.21875 -13.011719 7.316406 -13.011719 C 8.117188 -13.011719 8.714844 -13.6875 8.714844 -14.558594 C 8.714844 -15.210938 8.339844 -15.757812 7.742188 -15.957031 C 6.769531 -16.234375 5.71875 -16.234375 4.195312 -15.910156 C 2.574219 -15.558594 1.574219 -14.984375 1.347656 -14.210938 C 0.898438 -12.535156 1 -3.921875 1.097656 -1.847656 C 1.148438 -0.824219 2.046875 -0.25 3.644531 -0.101562 C 3.820312 -0.0742188 4.046875 -0.0507812 4.320312 0 C 4.945312 0.125 5.71875 0.25 6.441406 0.25 Z M 6.441406 0.25 "/></g></g></g><g fill="#000000" fill-opacity="0.4"><g transform="translate(414.231201, 99.725646)"><g><path d="M 8.117188 0.199219 C 11.136719 -0.175781 12.8125 -2.023438 12.8125 -4.96875 C 12.8125 -6.394531 12.460938 -7.691406 11.789062 -8.617188 C 10.9375 -9.839844 9.414062 -10.339844 8.042969 -10.539062 C 7.265625 -10.664062 6.144531 -10.714844 6.144531 -11.636719 C 6.144531 -12.386719 7.066406 -13.6875 7.890625 -14.109375 C 8.390625 -14.359375 9.066406 -14.460938 9.816406 -14.410156 C 10.089844 -14.386719 10.363281 -14.285156 10.664062 -14.183594 C 11.011719 -14.058594 11.4375 -13.910156 11.863281 -13.910156 C 12.710938 -13.910156 13.460938 -14.660156 13.460938 -15.484375 C 13.460938 -15.984375 13.1875 -16.382812 12.6875 -16.609375 C 11.789062 -17.03125 10.738281 -17.257812 9.613281 -17.257812 C 6.21875 -17.257812 3.546875 -15.234375 3.195312 -12.3125 C 2.921875 -9.839844 4.171875 -8.441406 7.316406 -7.59375 C 9.164062 -7.09375 9.789062 -6.542969 9.789062 -5.371094 C 9.789062 -4.695312 9.539062 -4.019531 9.117188 -3.597656 C 8.089844 -2.621094 5.417969 -2.597656 3.921875 -3.546875 C 3.644531 -3.746094 3.546875 -4.019531 3.445312 -4.371094 C 3.347656 -4.71875 3.222656 -5.121094 2.820312 -5.417969 C 2.023438 -5.992188 0.875 -5.792969 0.550781 -4.996094 C 0.425781 -4.746094 0.375 -4.496094 0.375 -4.21875 C 0.375 -2.820312 1.898438 -1.398438 2.871094 -0.824219 C 4.644531 0.175781 6.894531 0.375 8.117188 0.199219 Z M 8.117188 0.199219 "/></g></g></g><g fill="#000000" fill-opacity="0.4"><g transform="translate(435.758949, 99.725646)"><g><path d="M 6.441406 0.25 C 7.816406 0.25 8.515625 -0.300781 8.515625 -1.375 C 8.515625 -2.121094 7.992188 -2.695312 7.242188 -2.746094 C 7.117188 -2.746094 6.894531 -2.773438 6.644531 -2.796875 C 5.820312 -2.898438 4.519531 -3.023438 4.21875 -3.046875 C 3.894531 -3.070312 4.019531 -2.621094 3.996094 -6.269531 C 3.996094 -6.46875 3.945312 -6.46875 4.246094 -6.492188 C 4.320312 -6.519531 4.421875 -6.519531 4.546875 -6.542969 C 4.695312 -6.566406 4.894531 -6.566406 5.121094 -6.59375 C 5.96875 -6.617188 7.265625 -6.644531 7.265625 -8.015625 C 7.265625 -8.417969 7.09375 -8.867188 6.816406 -9.164062 C 6.492188 -9.515625 6.042969 -9.691406 5.496094 -9.691406 C 5.09375 -9.691406 4.671875 -9.589844 4.296875 -9.515625 C 4.21875 -9.488281 4.144531 -9.488281 4.070312 -9.464844 C 4.097656 -10.515625 4.144531 -11.539062 4.21875 -12.5625 C 4.246094 -12.910156 4.84375 -13.136719 5.894531 -13.136719 C 6.292969 -13.136719 6.644531 -13.085938 6.917969 -13.0625 C 7.066406 -13.035156 7.21875 -13.011719 7.316406 -13.011719 C 8.117188 -13.011719 8.714844 -13.6875 8.714844 -14.558594 C 8.714844 -15.210938 8.339844 -15.757812 7.742188 -15.957031 C 6.769531 -16.234375 5.71875 -16.234375 4.195312 -15.910156 C 2.574219 -15.558594 1.574219 -14.984375 1.347656 -14.210938 C 0.898438 -12.535156 1 -3.921875 1.097656 -1.847656 C 1.148438 -0.824219 2.046875 -0.25 3.644531 -0.101562 C 3.820312 -0.0742188 4.046875 -0.0507812 4.320312 0 C 4.945312 0.125 5.71875 0.25 6.441406 0.25 Z M 6.441406 0.25 "/></g></g></g><g fill="#000000" fill-opacity="0.4"><g transform="translate(452.541862, 99.725646)"><g><path d="M 9.914062 0.199219 C 10.8125 0.199219 11.339844 -0.273438 11.339844 -1.148438 C 11.339844 -1.449219 10.964844 -4.097656 10.6875 -5.496094 C 10.6875 -6.691406 9.089844 -11.386719 8.617188 -12.5625 C 8.542969 -12.761719 8.464844 -12.988281 8.390625 -13.261719 C 8.089844 -14.210938 7.691406 -15.460938 7.019531 -15.984375 C 6.816406 -16.160156 6.566406 -16.257812 6.292969 -16.257812 C 6.117188 -16.257812 5.917969 -16.207031 5.695312 -16.109375 C 5.570312 -16.058594 5.445312 -16.035156 5.292969 -16.007812 C 5.019531 -15.957031 4.695312 -15.882812 4.46875 -15.558594 C 3.871094 -14.808594 3.496094 -13.660156 3.171875 -12.710938 L 3.097656 -12.488281 C 3.046875 -12.335938 2.996094 -12.210938 2.972656 -12.0625 C 2.546875 -10.890625 2.199219 -9.664062 1.921875 -8.417969 C 1.625 -7.21875 1.421875 -5.992188 1.296875 -4.695312 C 1.273438 -4.519531 1.25 -4.34375 1.25 -4.171875 C 1.148438 -3.445312 1.050781 -2.621094 1.050781 -1.875 C 1.050781 -1.546875 1.074219 -1.273438 1.097656 -1 C 1.199219 -0.300781 1.796875 0.175781 2.574219 0.175781 C 3.347656 0.175781 3.945312 -0.300781 4.046875 -1 C 4.070312 -1.222656 4.097656 -1.523438 4.097656 -1.847656 C 4.097656 -1.996094 4.121094 -2.148438 4.121094 -2.296875 C 4.121094 -2.746094 4.144531 -3.246094 4.171875 -3.621094 L 4.171875 -3.972656 C 4.171875 -4.21875 4.171875 -4.269531 4.34375 -4.246094 L 4.445312 -4.246094 C 5.417969 -4.269531 5.867188 -4.269531 6.394531 -4.246094 L 7.417969 -4.246094 C 7.917969 -4.246094 7.941406 -4.320312 7.992188 -3.972656 L 8.066406 -3.222656 C 8.167969 -1.898438 8.339844 0.199219 9.914062 0.199219 Z M 4.695312 -7.21875 C 4.96875 -8.667969 5.394531 -10.066406 5.894531 -11.488281 C 6.417969 -10.113281 6.894531 -8.714844 7.292969 -7.21875 C 7.019531 -7.21875 6.742188 -7.21875 6.46875 -7.242188 L 5.71875 -7.242188 C 5.496094 -7.242188 5.292969 -7.242188 5.070312 -7.21875 Z M 4.695312 -7.21875 "/></g></g></g><g fill="#000000" fill-opacity="0.4"><g transform="translate(471.996862, 99.725646)"><g><path d="M 3.070312 0.25 C 3.421875 0.25 3.820312 0.0742188 4.144531 -0.226562 C 4.769531 -0.773438 4.671875 -1.5 4.59375 -2.023438 C 4.445312 -3.023438 4.320312 -4.046875 4.21875 -5.21875 C 5.019531 -5.269531 5.820312 -5.542969 6.269531 -5.71875 C 6.542969 -5.820312 6.59375 -5.820312 6.59375 -5.820312 C 6.667969 -5.820312 6.894531 -5.417969 7.542969 -3.746094 C 7.816406 -3.070312 8.066406 -2.324219 8.316406 -1.375 C 8.492188 -0.75 8.765625 0.0507812 9.816406 0.0507812 C 10.839844 0.0507812 11.613281 -0.925781 11.386719 -1.875 C 10.914062 -3.722656 10.191406 -5.570312 9.242188 -7.390625 C 10.289062 -8.339844 10.863281 -9.613281 10.863281 -10.9375 C 10.863281 -12.460938 10.066406 -13.835938 8.691406 -14.660156 C 7.167969 -15.558594 5.371094 -15.683594 4.21875 -15.683594 C 2.574219 -15.683594 1.574219 -15.234375 1.273438 -14.308594 C 0.972656 -13.335938 1 -10.164062 1 -9.441406 C 1 -7.542969 1.125 -4.34375 1.625 -1.273438 C 1.75 -0.398438 2.347656 0.25 3.070312 0.25 Z M 4.070312 -8.265625 C 4.019531 -9.214844 4.070312 -11.238281 4.171875 -12.636719 C 5.070312 -12.710938 5.820312 -12.636719 6.566406 -12.386719 C 7.390625 -12.085938 7.867188 -11.539062 7.867188 -10.839844 C 7.867188 -10.039062 7.117188 -9.339844 5.820312 -8.816406 C 5.246094 -8.589844 4.644531 -8.339844 4.070312 -8.265625 Z M 4.070312 -8.265625 "/></g></g></g><g fill="#000000" fill-opacity="0.4"><g transform="translate(491.47685, 99.725646)"><g><path d="M 9.339844 -0.273438 C 10.113281 -0.648438 11.511719 -1.949219 11.511719 -3.046875 C 11.511719 -3.546875 11.214844 -3.972656 10.6875 -4.269531 C 10.4375 -4.394531 10.191406 -4.46875 9.941406 -4.46875 C 9.214844 -4.46875 8.742188 -3.871094 8.464844 -3.570312 C 8.042969 -3.171875 7.542969 -2.945312 6.992188 -2.945312 C 6.269531 -2.945312 5.570312 -3.296875 5.195312 -3.871094 C 4.496094 -4.96875 4.070312 -6.566406 4.070312 -8.265625 C 4.070312 -10.488281 4.769531 -12.386719 5.945312 -13.460938 C 6.167969 -13.660156 6.691406 -13.8125 7.191406 -13.8125 C 7.640625 -13.8125 7.964844 -13.710938 8.140625 -13.511719 C 8.640625 -12.910156 8.914062 -12.636719 9.566406 -12.636719 C 10.4375 -12.636719 11.164062 -13.386719 11.164062 -14.261719 C 11.164062 -16.183594 8.316406 -16.984375 7.144531 -16.984375 C 3.320312 -16.984375 1.472656 -13.085938 1.125 -9.789062 C 0.597656 -5.417969 1.671875 -2.171875 4.21875 -0.574219 C 5.792969 0.398438 7.792969 0.523438 9.339844 -0.273438 Z M 9.339844 -0.273438 "/></g></g></g><g fill="#000000" fill-opacity="0.4"><g transform="translate(511.05672, 99.725646)"><g><path d="M 2.621094 0.25 C 3.445312 0.25 4.046875 -0.425781 4.21875 -1.5 C 4.519531 -3.347656 4.71875 -5.21875 4.871094 -7.144531 C 5.144531 -7.042969 5.496094 -6.992188 5.96875 -6.992188 C 7.34375 -6.992188 9.289062 -6.84375 10.066406 -6.742188 C 10.191406 -6.71875 10.3125 -6.71875 10.414062 -6.71875 C 10.6875 -6.71875 10.613281 -6.71875 10.613281 -6.46875 C 10.613281 -6.320312 10.5625 -5.570312 10.539062 -4.769531 L 10.414062 -2.421875 C 10.414062 -1.5 10.789062 -0.925781 11.539062 -0.675781 C 11.714844 -0.625 11.886719 -0.597656 12.0625 -0.597656 C 12.863281 -0.597656 13.511719 -1.171875 13.5625 -1.949219 C 13.6875 -3.171875 13.761719 -5.84375 13.785156 -6.59375 C 13.960938 -6.691406 14.109375 -6.867188 14.234375 -7.09375 C 14.410156 -7.34375 14.511719 -7.667969 14.511719 -7.992188 C 14.511719 -8.542969 14.285156 -8.816406 14.136719 -9.015625 C 13.984375 -9.191406 13.910156 -9.289062 13.910156 -9.515625 C 13.910156 -10.8125 13.785156 -13.8125 13.636719 -15.683594 C 13.5625 -16.457031 13.5625 -17.507812 12.535156 -17.832031 C 12.3125 -17.855469 12.1875 -17.882812 12.0625 -17.882812 C 11.511719 -17.882812 10.988281 -17.632812 10.6875 -17.230469 C 10.464844 -16.957031 10.339844 -16.53125 10.339844 -16.007812 C 10.339844 -15.609375 10.414062 -15.210938 10.464844 -14.835938 C 10.515625 -14.558594 10.5625 -14.308594 10.5625 -14.109375 C 10.664062 -12.636719 10.714844 -11.261719 10.714844 -9.863281 C 9.765625 -9.988281 8.816406 -10.066406 7.84375 -10.113281 C 7.640625 -10.113281 7.417969 -10.140625 7.191406 -10.164062 C 6.519531 -10.214844 5.71875 -10.289062 5.019531 -10.164062 C 5.070312 -11.761719 5.09375 -13.8125 4.996094 -15.609375 C 4.945312 -17.058594 4.496094 -17.804688 3.546875 -17.804688 C 3.445312 -17.804688 3.320312 -17.804688 3.171875 -17.78125 C 2.246094 -17.605469 1.824219 -17.007812 1.824219 -15.808594 C 1.824219 -15.734375 1.824219 -15.460938 1.847656 -15.058594 C 1.875 -14.210938 1.921875 -12.863281 1.921875 -12.1875 C 1.921875 -9.839844 1.699219 -6.144531 1.25 -3.121094 L 1.171875 -2.648438 C 1.074219 -2.246094 1 -1.824219 1 -1.398438 C 1 -0.597656 1.347656 -0.0742188 2.046875 0.148438 C 2.246094 0.226562 2.449219 0.25 2.621094 0.25 Z M 2.621094 0.25 "/></g></g></g><g fill="#000000" fill-opacity="1"><g transform="translate(376.86447, 98.621821)"><g><path d="M 3.070312 0.25 C 3.421875 0.25 3.820312 0.0742188 4.144531 -0.226562 C 4.769531 -0.773438 4.671875 -1.5 4.59375 -2.023438 C 4.445312 -3.023438 4.320312 -4.046875 4.21875 -5.21875 C 5.019531 -5.269531 5.820312 -5.542969 6.269531 -5.71875 C 6.542969 -5.820312 6.59375 -5.820312 6.59375 -5.820312 C 6.667969 -5.820312 6.894531 -5.417969 7.542969 -3.746094 C 7.816406 -3.070312 8.066406 -2.324219 8.316406 -1.375 C 8.492188 -0.75 8.765625 0.0507812 9.816406 0.0507812 C 10.839844 0.0507812 11.613281 -0.925781 11.386719 -1.875 C 10.914062 -3.722656 10.191406 -5.570312 9.242188 -7.390625 C 10.289062 -8.339844 10.863281 -9.613281 10.863281 -10.9375 C 10.863281 -12.460938 10.066406 -13.835938 8.691406 -14.660156 C 7.167969 -15.558594 5.371094 -15.683594 4.21875 -15.683594 C 2.574219 -15.683594 1.574219 -15.234375 1.273438 -14.308594 C 0.972656 -13.335938 1 -10.164062 1 -9.441406 C 1 -7.542969 1.125 -4.34375 1.625 -1.273438 C 1.75 -0.398438 2.347656 0.25 3.070312 0.25 Z M 4.070312 -8.265625 C 4.019531 -9.214844 4.070312 -11.238281 4.171875 -12.636719 C 5.070312 -12.710938 5.820312 -12.636719 6.566406 -12.386719 C 7.390625 -12.085938 7.867188 -11.539062 7.867188 -10.839844 C 7.867188 -10.039062 7.117188 -9.339844 5.820312 -8.816406 C 5.246094 -8.589844 4.644531 -8.339844 4.070312 -8.265625 Z M 4.070312 -8.265625 "/></g></g></g><g fill="#000000" fill-opacity="1"><g transform="translate(396.344453, 98.621821)"><g><path d="M 6.441406 0.25 C 7.816406 0.25 8.515625 -0.300781 8.515625 -1.375 C 8.515625 -2.121094 7.992188 -2.695312 7.242188 -2.746094 C 7.117188 -2.746094 6.894531 -2.773438 6.644531 -2.796875 C 5.820312 -2.898438 4.519531 -3.023438 4.21875 -3.046875 C 3.894531 -3.070312 4.019531 -2.621094 3.996094 -6.269531 C 3.996094 -6.46875 3.945312 -6.46875 4.246094 -6.492188 C 4.320312 -6.519531 4.421875 -6.519531 4.546875 -6.542969 C 4.695312 -6.566406 4.894531 -6.566406 5.121094 -6.59375 C 5.96875 -6.617188 7.265625 -6.644531 7.265625 -8.015625 C 7.265625 -8.417969 7.09375 -8.867188 6.816406 -9.164062 C 6.492188 -9.515625 6.042969 -9.691406 5.496094 -9.691406 C 5.09375 -9.691406 4.671875 -9.589844 4.296875 -9.515625 C 4.21875 -9.488281 4.144531 -9.488281 4.070312 -9.464844 C 4.097656 -10.515625 4.144531 -11.539062 4.21875 -12.5625 C 4.246094 -12.910156 4.84375 -13.136719 5.894531 -13.136719 C 6.292969 -13.136719 6.644531 -13.085938 6.917969 -13.0625 C 7.066406 -13.035156 7.21875 -13.011719 7.316406 -13.011719 C 8.117188 -13.011719 8.714844 -13.6875 8.714844 -14.558594 C 8.714844 -15.210938 8.339844 -15.757812 7.742188 -15.957031 C 6.769531 -16.234375 5.71875 -16.234375 4.195312 -15.910156 C 2.574219 -15.558594 1.574219 -14.984375 1.347656 -14.210938 C 0.898438 -12.535156 1 -3.921875 1.097656 -1.847656 C 1.148438 -0.824219 2.046875 -0.25 3.644531 -0.101562 C 3.820312 -0.0742188 4.046875 -0.0507812 4.320312 0 C 4.945312 0.125 5.71875 0.25 6.441406 0.25 Z M 6.441406 0.25 "/></g></g></g><g fill="#000000" fill-opacity="1"><g transform="translate(413.127368, 98.621821)"><g><path d="M 8.117188 0.199219 C 11.136719 -0.175781 12.8125 -2.023438 12.8125 -4.96875 C 12.8125 -6.394531 12.460938 -7.691406 11.789062 -8.617188 C 10.9375 -9.839844 9.414062 -10.339844 8.042969 -10.539062 C 7.265625 -10.664062 6.144531 -10.714844 6.144531 -11.636719 C 6.144531 -12.386719 7.066406 -13.6875 7.890625 -14.109375 C 8.390625 -14.359375 9.066406 -14.460938 9.816406 -14.410156 C 10.089844 -14.386719 10.363281 -14.285156 10.664062 -14.183594 C 11.011719 -14.058594 11.4375 -13.910156 11.863281 -13.910156 C 12.710938 -13.910156 13.460938 -14.660156 13.460938 -15.484375 C 13.460938 -15.984375 13.1875 -16.382812 12.6875 -16.609375 C 11.789062 -17.03125 10.738281 -17.257812 9.613281 -17.257812 C 6.21875 -17.257812 3.546875 -15.234375 3.195312 -12.3125 C 2.921875 -9.839844 4.171875 -8.441406 7.316406 -7.59375 C 9.164062 -7.09375 9.789062 -6.542969 9.789062 -5.371094 C 9.789062 -4.695312 9.539062 -4.019531 9.117188 -3.597656 C 8.089844 -2.621094 5.417969 -2.597656 3.921875 -3.546875 C 3.644531 -3.746094 3.546875 -4.019531 3.445312 -4.371094 C 3.347656 -4.71875 3.222656 -5.121094 2.820312 -5.417969 C 2.023438 -5.992188 0.875 -5.792969 0.550781 -4.996094 C 0.425781 -4.746094 0.375 -4.496094 0.375 -4.21875 C 0.375 -2.820312 1.898438 -1.398438 2.871094 -0.824219 C 4.644531 0.175781 6.894531 0.375 8.117188 0.199219 Z M 8.117188 0.199219 "/></g></g></g><g fill="#000000" fill-opacity="1"><g transform="translate(434.655116, 98.621821)"><g><path d="M 6.441406 0.25 C 7.816406 0.25 8.515625 -0.300781 8.515625 -1.375 C 8.515625 -2.121094 7.992188 -2.695312 7.242188 -2.746094 C 7.117188 -2.746094 6.894531 -2.773438 6.644531 -2.796875 C 5.820312 -2.898438 4.519531 -3.023438 4.21875 -3.046875 C 3.894531 -3.070312 4.019531 -2.621094 3.996094 -6.269531 C 3.996094 -6.46875 3.945312 -6.46875 4.246094 -6.492188 C 4.320312 -6.519531 4.421875 -6.519531 4.546875 -6.542969 C 4.695312 -6.566406 4.894531 -6.566406 5.121094 -6.59375 C 5.96875 -6.617188 7.265625 -6.644531 7.265625 -8.015625 C 7.265625 -8.417969 7.09375 -8.867188 6.816406 -9.164062 C 6.492188 -9.515625 6.042969 -9.691406 5.496094 -9.691406 C 5.09375 -9.691406 4.671875 -9.589844 4.296875 -9.515625 C 4.21875 -9.488281 4.144531 -9.488281 4.070312 -9.464844 C 4.097656 -10.515625 4.144531 -11.539062 4.21875 -12.5625 C 4.246094 -12.910156 4.84375 -13.136719 5.894531 -13.136719 C 6.292969 -13.136719 6.644531 -13.085938 6.917969 -13.0625 C 7.066406 -13.035156 7.21875 -13.011719 7.316406 -13.011719 C 8.117188 -13.011719 8.714844 -13.6875 8.714844 -14.558594 C 8.714844 -15.210938 8.339844 -15.757812 7.742188 -15.957031 C 6.769531 -16.234375 5.71875 -16.234375 4.195312 -15.910156 C 2.574219 -15.558594 1.574219 -14.984375 1.347656 -14.210938 C 0.898438 -12.535156 1 -3.921875 1.097656 -1.847656 C 1.148438 -0.824219 2.046875 -0.25 3.644531 -0.101562 C 3.820312 -0.0742188 4.046875 -0.0507812 4.320312 0 C 4.945312 0.125 5.71875 0.25 6.441406 0.25 Z M 6.441406 0.25 "/></g></g></g><g fill="#000000" fill-opacity="1"><g transform="translate(451.43803, 98.621821)"><g><path d="M 9.914062 0.199219 C 10.8125 0.199219 11.339844 -0.273438 11.339844 -1.148438 C 11.339844 -1.449219 10.964844 -4.097656 10.6875 -5.496094 C 10.6875 -6.691406 9.089844 -11.386719 8.617188 -12.5625 C 8.542969 -12.761719 8.464844 -12.988281 8.390625 -13.261719 C 8.089844 -14.210938 7.691406 -15.460938 7.019531 -15.984375 C 6.816406 -16.160156 6.566406 -16.257812 6.292969 -16.257812 C 6.117188 -16.257812 5.917969 -16.207031 5.695312 -16.109375 C 5.570312 -16.058594 5.445312 -16.035156 5.292969 -16.007812 C 5.019531 -15.957031 4.695312 -15.882812 4.46875 -15.558594 C 3.871094 -14.808594 3.496094 -13.660156 3.171875 -12.710938 L 3.097656 -12.488281 C 3.046875 -12.335938 2.996094 -12.210938 2.972656 -12.0625 C 2.546875 -10.890625 2.199219 -9.664062 1.921875 -8.417969 C 1.625 -7.21875 1.421875 -5.992188 1.296875 -4.695312 C 1.273438 -4.519531 1.25 -4.34375 1.25 -4.171875 C 1.148438 -3.445312 1.050781 -2.621094 1.050781 -1.875 C 1.050781 -1.546875 1.074219 -1.273438 1.097656 -1 C 1.199219 -0.300781 1.796875 0.175781 2.574219 0.175781 C 3.347656 0.175781 3.945312 -0.300781 4.046875 -1 C 4.070312 -1.222656 4.097656 -1.523438 4.097656 -1.847656 C 4.097656 -1.996094 4.121094 -2.148438 4.121094 -2.296875 C 4.121094 -2.746094 4.144531 -3.246094 4.171875 -3.621094 L 4.171875 -3.972656 C 4.171875 -4.21875 4.171875 -4.269531 4.34375 -4.246094 L 4.445312 -4.246094 C 5.417969 -4.269531 5.867188 -4.269531 6.394531 -4.246094 L 7.417969 -4.246094 C 7.917969 -4.246094 7.941406 -4.320312 7.992188 -3.972656 L 8.066406 -3.222656 C 8.167969 -1.898438 8.339844 0.199219 9.914062 0.199219 Z M 4.695312 -7.21875 C 4.96875 -8.667969 5.394531 -10.066406 5.894531 -11.488281 C 6.417969 -10.113281 6.894531 -8.714844 7.292969 -7.21875 C 7.019531 -7.21875 6.742188 -7.21875 6.46875 -7.242188 L 5.71875 -7.242188 C 5.496094 -7.242188 5.292969 -7.242188 5.070312 -7.21875 Z M 4.695312 -7.21875 "/></g></g></g><g fill="#000000" fill-opacity="1"><g transform="translate(470.893029, 98.621821)"><g><path d="M 3.070312 0.25 C 3.421875 0.25 3.820312 0.0742188 4.144531 -0.226562 C 4.769531 -0.773438 4.671875 -1.5 4.59375 -2.023438 C 4.445312 -3.023438 4.320312 -4.046875 4.21875 -5.21875 C 5.019531 -5.269531 5.820312 -5.542969 6.269531 -5.71875 C 6.542969 -5.820312 6.59375 -5.820312 6.59375 -5.820312 C 6.667969 -5.820312 6.894531 -5.417969 7.542969 -3.746094 C 7.816406 -3.070312 8.066406 -2.324219 8.316406 -1.375 C 8.492188 -0.75 8.765625 0.0507812 9.816406 0.0507812 C 10.839844 0.0507812 11.613281 -0.925781 11.386719 -1.875 C 10.914062 -3.722656 10.191406 -5.570312 9.242188 -7.390625 C 10.289062 -8.339844 10.863281 -9.613281 10.863281 -10.9375 C 10.863281 -12.460938 10.066406 -13.835938 8.691406 -14.660156 C 7.167969 -15.558594 5.371094 -15.683594 4.21875 -15.683594 C 2.574219 -15.683594 1.574219 -15.234375 1.273438 -14.308594 C 0.972656 -13.335938 1 -10.164062 1 -9.441406 C 1 -7.542969 1.125 -4.34375 1.625 -1.273438 C 1.75 -0.398438 2.347656 0.25 3.070312 0.25 Z M 4.070312 -8.265625 C 4.019531 -9.214844 4.070312 -11.238281 4.171875 -12.636719 C 5.070312 -12.710938 5.820312 -12.636719 6.566406 -12.386719 C 7.390625 -12.085938 7.867188 -11.539062 7.867188 -10.839844 C 7.867188 -10.039062 7.117188 -9.339844 5.820312 -8.816406 C 5.246094 -8.589844 4.644531 -8.339844 4.070312 -8.265625 Z M 4.070312 -8.265625 "/></g></g></g><g fill="#000000" fill-opacity="1"><g transform="translate(490.373017, 98.621821)"><g><path d="M 9.339844 -0.273438 C 10.113281 -0.648438 11.511719 -1.949219 11.511719 -3.046875 C 11.511719 -3.546875 11.214844 -3.972656 10.6875 -4.269531 C 10.4375 -4.394531 10.191406 -4.46875 9.941406 -4.46875 C 9.214844 -4.46875 8.742188 -3.871094 8.464844 -3.570312 C 8.042969 -3.171875 7.542969 -2.945312 6.992188 -2.945312 C 6.269531 -2.945312 5.570312 -3.296875 5.195312 -3.871094 C 4.496094 -4.96875 4.070312 -6.566406 4.070312 -8.265625 C 4.070312 -10.488281 4.769531 -12.386719 5.945312 -13.460938 C 6.167969 -13.660156 6.691406 -13.8125 7.191406 -13.8125 C 7.640625 -13.8125 7.964844 -13.710938 8.140625 -13.511719 C 8.640625 -12.910156 8.914062 -12.636719 9.566406 -12.636719 C 10.4375 -12.636719 11.164062 -13.386719 11.164062 -14.261719 C 11.164062 -16.183594 8.316406 -16.984375 7.144531 -16.984375 C 3.320312 -16.984375 1.472656 -13.085938 1.125 -9.789062 C 0.597656 -5.417969 1.671875 -2.171875 4.21875 -0.574219 C 5.792969 0.398438 7.792969 0.523438 9.339844 -0.273438 Z M 9.339844 -0.273438 "/></g></g></g><g fill="#000000" fill-opacity="1"><g transform="translate(509.952887, 98.621821)"><g><path d="M 2.621094 0.25 C 3.445312 0.25 4.046875 -0.425781 4.21875 -1.5 C 4.519531 -3.347656 4.71875 -5.21875 4.871094 -7.144531 C 5.144531 -7.042969 5.496094 -6.992188 5.96875 -6.992188 C 7.34375 -6.992188 9.289062 -6.84375 10.066406 -6.742188 C 10.191406 -6.71875 10.3125 -6.71875 10.414062 -6.71875 C 10.6875 -6.71875 10.613281 -6.71875 10.613281 -6.46875 C 10.613281 -6.320312 10.5625 -5.570312 10.539062 -4.769531 L 10.414062 -2.421875 C 10.414062 -1.5 10.789062 -0.925781 11.539062 -0.675781 C 11.714844 -0.625 11.886719 -0.597656 12.0625 -0.597656 C 12.863281 -0.597656 13.511719 -1.171875 13.5625 -1.949219 C 13.6875 -3.171875 13.761719 -5.84375 13.785156 -6.59375 C 13.960938 -6.691406 14.109375 -6.867188 14.234375 -7.09375 C 14.410156 -7.34375 14.511719 -7.667969 14.511719 -7.992188 C 14.511719 -8.542969 14.285156 -8.816406 14.136719 -9.015625 C 13.984375 -9.191406 13.910156 -9.289062 13.910156 -9.515625 C 13.910156 -10.8125 13.785156 -13.8125 13.636719 -15.683594 C 13.5625 -16.457031 13.5625 -17.507812 12.535156 -17.832031 C 12.3125 -17.855469 12.1875 -17.882812 12.0625 -17.882812 C 11.511719 -17.882812 10.988281 -17.632812 10.6875 -17.230469 C 10.464844 -16.957031 10.339844 -16.53125 10.339844 -16.007812 C 10.339844 -15.609375 10.414062 -15.210938 10.464844 -14.835938 C 10.515625 -14.558594 10.5625 -14.308594 10.5625 -14.109375 C 10.664062 -12.636719 10.714844 -11.261719 10.714844 -9.863281 C 9.765625 -9.988281 8.816406 -10.066406 7.84375 -10.113281 C 7.640625 -10.113281 7.417969 -10.140625 7.191406 -10.164062 C 6.519531 -10.214844 5.71875 -10.289062 5.019531 -10.164062 C 5.070312 -11.761719 5.09375 -13.8125 4.996094 -15.609375 C 4.945312 -17.058594 4.496094 -17.804688 3.546875 -17.804688 C 3.445312 -17.804688 3.320312 -17.804688 3.171875 -17.78125 C 2.246094 -17.605469 1.824219 -17.007812 1.824219 -15.808594 C 1.824219 -15.734375 1.824219 -15.460938 1.847656 -15.058594 C 1.875 -14.210938 1.921875 -12.863281 1.921875 -12.1875 C 1.921875 -9.839844 1.699219 -6.144531 1.25 -3.121094 L 1.171875 -2.648438 C 1.074219 -2.246094 1 -1.824219 1 -1.398438 C 1 -0.597656 1.347656 -0.0742188 2.046875 0.148438 C 2.246094 0.226562 2.449219 0.25 2.621094 0.25 Z M 2.621094 0.25 "/></g></g></g></svg>